<?xml version="1.0" encoding="UTF-8"?>
<svg width="68px" height="67px" viewBox="0 0 68 67" version="1.1" xmlns="http://www.w3.org/2000/svg" xmlns:xlink="http://www.w3.org/1999/xlink">
    <!-- Generator: Sketch 42 (36781) - http://www.bohemiancoding.com/sketch -->
    <title>Page 1</title>
    <desc>Created with Sketch.</desc>
    <defs>
        <polygon id="path-1" points="68 67 68 0 0 0 1.21291838e-15 67 68 67"></polygon>
    </defs>
    <g id="Greatest-Hotels" stroke="none" stroke-width="1" fill="none" fill-rule="evenodd">
        <g id="Greatest-Hotels-Case-Study" transform="translate(-150.000000, -1487.000000)">
            <g id="User-Research" transform="translate(0.000000, 1241.000000)">
                <g id="Contents" transform="translate(150.000000, 35.000000)">
                    <g id="Persona-Example" transform="translate(0.000000, 164.000000)">
                        <g id="Page-1" transform="translate(0.000000, 47.000000)">
                            <mask id="mask-2" fill="white">
                                <use xlink:href="#path-1"></use>
                            </mask>
                            <g id="Clip-2"></g>
                            <path d="M0,58.0145412 C0,58.0145412 5.33301333,54.8031458 7.85853333,53.6698735 C10.3609333,52.5468912 12.8905333,51.587177 15.5652,50.6972061 C18.0848267,49.8586852 18.9085333,49.3823725 20.1552,48.925039 C21.4018667,48.4677056 22.0818667,49.0393724 21.9685333,47.6673721 C21.8552,46.2953717 22.21968,45.9523716 21.9807733,44.809038 C21.7418667,43.6657044 21.6285333,42.8653709 21.5152,41.4933706 C21.4018667,40.1213703 21.1752,37.3773696 20.7218667,37.2630362 C20.2685333,37.1487029 19.0218667,36.9200362 18.5685333,36.3483694 C18.1152,35.7767026 17.4635333,33.9459968 17.0952,33.2613686 C16.7268667,32.5767405 16.0752,30.0600345 15.7352,29.259701 C15.3952,28.4593675 14.6943467,26.5726384 14.9418667,26.1727003 C15.3675467,25.4853281 15.9131333,26.3522036 15.6218667,26.0583669 C15.3385333,25.7725335 15.0760533,24.1268191 15.0552,24.3433665 C15.0178,24.7330146 15.1685333,17.0260314 15.2818667,15.9970312 C15.3952,14.9680309 15.9618667,12.9898351 15.9618667,12.320985 C15.9618667,11.6523635 15.8485333,11.0806967 15.9618667,9.82302969 C16.0752,8.56536273 16.3585333,8.85119613 16.5852,8.22236265 C16.8118667,7.59352916 17.6052,6.67886228 18.0585333,6.27869552 C18.5118667,5.87852875 19.0785333,4.90669519 19.4185333,4.44936175 C19.7585333,3.9920283 20.7218667,3.07736142 21.2318667,3.02019474 C21.7418667,2.96302806 22.7618667,2.73436134 23.1585333,2.27702789 C23.5552,1.81969445 25.9918667,0.733527526 26.8985333,0.962194247 C27.8052,1.19086097 27.7485333,1.01936093 28.3152,0.390527444 C28.8818667,-0.238306039 30.5818667,-0.00963931798 31.1485333,0.390527444 C31.7152,0.790694206 33.3018667,0.619194165 33.6418667,0.733527526 C33.9818667,0.847860887 35.0585333,1.30519433 35.6818667,1.30519433 C36.3052,1.30519433 38.1185333,1.24802765 37.4385333,0.905027567 C36.7585333,0.562027485 38.0052,0.790694206 38.8552,1.36236101 C39.7052,1.93402781 40.5552,2.5628613 41.3485333,3.19169478 C42.1418667,3.82052826 42.0285333,4.39219507 42.6518667,4.62086179 C43.2752,4.84952851 44.6352,5.02102855 44.9185333,5.36402863 C45.2018667,5.70702871 46.3918667,6.27869552 46.6185333,6.67886228 C46.8452,7.07902904 47.6952,8.96552949 47.6385333,7.65069584 C47.5818667,6.3358622 47.4173067,5.30686195 47.6412533,5.64986203 C47.8652,5.99286211 48.4885333,7.99369592 48.3185333,8.33669601 C48.1485333,8.67969609 48.6585333,9.99452974 48.7718667,10.3375298 C48.8852,10.6805299 48.8852,11.3093634 49.2252,11.2521967 C49.5652,11.19503 49.8485333,11.6523635 49.6218667,11.9953635 C49.3952,12.3383636 49.3315067,12.7956971 49.7034667,13.0815305 C50.0752,13.3673639 50.5852,13.9390307 50.9818667,13.8246973 C51.3785333,13.710364 51.0952,14.4535308 50.6418667,14.5678642 C50.1885333,14.6821975 49.1118667,15.311031 49.7918667,15.3681977 C50.4718667,15.4253644 50.0185333,16.6258647 49.9052,17.3118648 C49.7918667,17.997865 50.0185333,21.8280326 49.9618667,22.5711994 C49.9052,23.3143662 49.5085333,24.0003664 49.8485333,23.9431997 C50.1885333,23.886033 50.5852,23.6001996 50.8118667,23.9431997 C51.0385333,24.2861998 51.9263867,24.8578666 51.17068,26.401367 C50.4152,27.9448674 49.8485333,28.8595342 49.6785333,29.259701 C49.5085333,29.6598678 49.2252,30.1172012 49.1118667,30.688868 C48.9985333,31.2605348 48.7718667,32.1752017 48.6018667,32.6325351 C48.4318667,33.0898686 47.9785333,34.1760355 47.5818667,34.804869 C47.1852,35.4337025 46.5618667,35.3765358 46.5052,35.8910359 C46.4485333,36.405536 46.3352,39.2067034 46.3918667,40.1213703 C46.4485333,41.0360371 46.1652,44.1230379 45.9385333,44.809038 C45.7118667,45.4950382 45.2585333,45.3807048 45.3718667,46.0095383 C45.4852,46.6383718 45.4285333,48.8678723 45.5418667,49.4395391 C45.6552,50.0112059 45.9385333,49.6110392 46.5052,49.7825392 C47.0718667,49.9540393 48.0918667,50.4113727 48.4885333,50.6400394 C48.8852,50.8687062 50.3585333,51.8405397 50.8685333,52.3550398 C51.3785333,52.86954 54.2118667,54.1843736 54.7218667,54.470207 C55.2318667,54.7560404 58.5752,56.4710408 59.3118667,56.8140409 C60.0485333,57.157041 62.7118667,58.414708 63.2218667,58.7005414 C63.7318667,58.9863748 65.1485333,60.3012084 65.6585333,60.5870418 C66.1685333,60.8728752 68,61.6732087 68,61.6732087 L68,67 L0,67 L0,58.0145412 Z" id="Fill-1" fill="#242424" mask="url(#mask-2)"></path>
                        </g>
                    </g>
                </g>
            </g>
        </g>
    </g>
</svg>