<?xml version="1.0" encoding="UTF-8"?>
<svg width="164px" height="164px" viewBox="0 0 164 164" version="1.1" xmlns="http://www.w3.org/2000/svg" xmlns:xlink="http://www.w3.org/1999/xlink">
    <!-- Generator: Sketch 44.1 (41455) - http://www.bohemiancoding.com/sketch -->
    <title>Logo</title>
    <desc>Created with Sketch.</desc>
    <defs></defs>
    <g id="Energy-Hog" stroke="none" stroke-width="1" fill="none" fill-rule="evenodd">
        <g id="Energy-Hog-Case-Study" transform="translate(-151.000000, -829.000000)">
            <g id="Title" transform="translate(0.000000, 725.000000)">
                <g id="Logo" transform="translate(151.000000, 104.000000)">
                    <rect id="Rectangle" fill="#E96A6A" x="0" y="0" width="164" height="164" rx="37"></rect>
                    <g id="Artwork" transform="translate(19.539062, 39.078125)">
                        <path d="M112.823492,48.7662386 C112.823492,24.8982064 90.2155437,5.52466978 62.2207031,5.28515625 C34.2258625,5.52466978 11.617914,24.8982064 11.617914,48.7662386 C11.617914,59.420304 7.65817832,69.3236793 15.1355342,76.8855019 C24.4105762,86.2651088 46.537265,92.12167 62.2207031,92.25 C77.9041413,92.12167 100.03083,86.2651088 109.305872,76.8855019 C116.783228,69.3236793 112.823492,59.420304 112.823492,48.7662386 L112.823492,48.7662386 Z" id="Stroke-6" stroke="#FFFFFF" stroke-width="4.8046875" fill="#F9A6A6" stroke-linecap="round"></path>
                        <path d="M86.4042969,57.3359375 L86.4042969,57.3359375 C83.4535106,57.3359375 81.0390625,54.8864325 81.0390625,51.8928018 L81.0390625,28.9861045 C81.0390625,25.9924738 83.4535106,23.5429688 86.4042969,23.5429688 C89.3550832,23.5429688 91.7695312,25.9924738 91.7695312,28.9861045 L91.7695312,51.8928018 C91.7695312,54.8864325 89.3550832,57.3359375 86.4042969,57.3359375 L86.4042969,57.3359375 Z" id="Fill-1" fill="#FFFFFF"></path>
                        <path d="M38.1972656,57.3359375 L38.1972656,57.3359375 C35.2464793,57.3359375 32.8320312,54.8864325 32.8320312,51.8928018 L32.8320312,28.9861045 C32.8320312,25.9924738 35.2464793,23.5429688 38.1972656,23.5429688 C41.1483165,23.5429688 43.5625,25.9924738 43.5625,28.9861045 L43.5625,51.8928018 C43.5625,54.8864325 41.1483165,57.3359375 38.1972656,57.3359375 L38.1972656,57.3359375 Z" id="Fill-3" fill="#FFFFFF"></path>
                        <path d="M79.2773438,69.2870699 C79.2773438,78.6295131 71.7125376,79.9179688 62.3808594,79.9179688 C53.0491812,79.9179688 45.484375,78.6295131 45.484375,69.2870699 C45.484375,59.9446267 58.7367193,52.3710938 62.3808594,52.3710938 C66.0249995,52.3710938 79.2773438,59.9446267 79.2773438,69.2870699" id="Fill-5" fill="#FFFFFF"></path>
                        <path d="M25.0920176,32.5191868 C22.7866578,36.2954175 11.7458766,33.9976912 5.58328635,29.8534392 C0.652407679,26.5372352 -3.166651,18.5974955 3.81501944,15.7359691 C9.35153894,13.4668607 8.51794276,8.33381875 13.8617217,3.23661609 C17.9219077,-0.636166701 22.4124669,-1.25827256 27.0530251,2.59980008 C34.9424848,9.15892475 33.7252892,12.4668376 33.7252892,12.4668376 L26.7979194,17.1486789 C29.898166,20.7604233 27.3973775,28.7432236 25.0920176,32.5191868 Z" id="Fill-7" fill="#F8A5A5"></path>
                        <path d="M25.0920176,32.5191868 C22.7866578,36.2954175 11.7458766,33.9976912 5.58328635,29.8534392 C0.652407679,26.5372352 -3.166651,18.5974955 3.81501944,15.7359691 C9.35153894,13.4668607 8.51794276,8.33381875 13.8617217,3.23661609 C17.9219077,-0.636166701 22.4124669,-1.25827256 27.0530251,2.59980008 C34.9424848,9.15892475 33.7252892,12.4668376 33.7252892,12.4668376 L26.7979194,17.1486789 C29.898166,20.7604233 27.3973775,28.7432236 25.0920176,32.5191868 Z" id="Stroke-8" stroke="#FFFFFF" stroke-width="4.8046875" stroke-linecap="round" stroke-linejoin="round"></path>
                        <path d="M99.6696985,32.5191868 C101.975059,36.2954175 113.015841,33.9976912 119.178432,29.8534392 C124.109311,26.5372352 127.92837,18.5974955 120.946699,15.7359691 C115.410179,13.4668607 116.243775,8.33381875 110.899996,3.23661609 C106.839809,-0.636166701 102.349249,-1.25827256 97.7089596,2.59980008 C89.8192303,9.15892475 91.0364261,12.4668376 91.0364261,12.4668376 L97.9637965,17.1486789 C94.8635496,20.7604233 97.3643384,28.7432236 99.6696985,32.5191868 Z" id="Fill-9" fill="#F8A5A5"></path>
                        <path d="M97.9637965,17.1486789 C94.8635496,20.7604233 97.3643384,28.7432236 99.6696985,32.5191868 C101.975059,36.2954175 113.015841,33.9976912 119.178432,29.8534392 C124.109311,26.5372352 127.92837,18.5974955 120.946699,15.7359691 C115.410179,13.4668607 116.243775,8.33381875 110.899996,3.23661609 C106.839809,-0.636166701 102.349249,-1.25827256 97.7089596,2.59980008 C89.8192303,9.15892475 91.0364261,12.4668376 91.0364261,12.4668376 L97.9637965,17.1486789 L97.9637965,17.1486789 Z" id="Stroke-10" stroke="#FFFFFF" stroke-width="4.8046875" stroke-linecap="round" stroke-linejoin="round"></path>
                    </g>
                </g>
            </g>
        </g>
    </g>
</svg>