<?xml version="1.0" encoding="UTF-8"?>
<svg width="512px" height="512px" viewBox="0 0 512 512" version="1.1" xmlns="http://www.w3.org/2000/svg" xmlns:xlink="http://www.w3.org/1999/xlink">
    <!-- Generator: Sketch 44.1 (41455) - http://www.bohemiancoding.com/sketch -->
    <title>webfavico tealsvg</title>
    <desc>Created with Sketch.</desc>
    <defs></defs>
    <g id="Page-1" stroke="none" stroke-width="1" fill="none" fill-rule="evenodd">
        <g id="webfavico-teal" fill="#00AB84">
            <g id="Logo-Mark-White" transform="translate(70.000000, 35.000000)">
                <path d="M230.521381,219.258925 L212.882851,219.258925 C211.576219,219.258925 210.515763,220.317133 210.515763,221.624516 L210.515763,256.714122 C210.515763,258.019928 211.576219,259.079713 212.882851,259.079713 L281.055003,259.079713 C282.361636,259.079713 283.422092,258.019928 283.422092,256.714122 L283.422092,221.624516 C283.422092,220.317133 282.361636,219.258925 281.055003,219.258925 L263.066738,219.258925 C264.248206,219.995009 265.338222,220.827167 266.312933,221.755412 C275.154798,230.176918 277.769642,252.527025 266.97414,252.637419 L225.865701,252.637419 C214.468959,252.752545 218.327313,230.263656 227.271752,221.755412 C228.247578,220.827217 229.338749,219.99505 230.521381,219.258925 Z M109.479396,219.258925 L91.4906574,219.258925 C90.1840245,219.258925 89.1235688,220.317133 89.1235688,221.624516 L89.1235688,256.714122 C89.1235688,258.019928 90.1840245,259.079713 91.4906574,259.079713 L159.662809,259.079713 C160.97102,259.079713 162.029898,258.019928 162.029898,256.714122 L162.029898,221.624516 C162.029898,220.317133 160.97102,219.258925 159.662809,219.258925 L142.024753,219.258925 C143.207385,219.99505 144.298557,220.827217 145.274382,221.755412 C154.218821,230.263656 158.077176,252.752545 146.678855,252.637419 L105.571994,252.637419 C94.776492,252.527025 97.3913359,230.176918 106.233201,221.755412 C107.207912,220.827167 108.297928,219.995009 109.479396,219.258925 Z M307.596027,222.753692 C307.819187,213.427582 308.108956,202.041863 308.476462,188.173161 C308.670564,180.921835 302.446699,149.1961 289.773306,135.988215 C282.309087,128.210151 207.179273,100.870222 186.615585,100.567427 C186.509855,100.565849 186.3915,100.565849 186.273146,100.565849 C186.154792,100.565849 186.036437,100.565849 185.930707,100.567427 C165.367019,100.870222 90.2372051,128.210151 82.7745637,135.988215 C70.0980152,149.1961 63.8773063,180.921835 64.0698295,188.173161 C64.4373355,202.041863 64.7271053,213.427582 64.9502652,222.753692 L76.2039992,222.753692 L76.2039992,210.518853 C76.2039992,207.905663 78.3233325,205.78767 80.9381764,205.78767 L170.295771,205.78767 C172.910615,205.78767 175.029949,207.905663 175.029949,210.518853 L175.029949,222.753692 L197.51729,222.753692 L197.51729,210.518853 C197.51729,207.905663 199.635046,205.78767 202.251468,205.78767 L291.609062,205.78767 C294.222328,205.78767 296.34324,207.905663 296.34324,210.518853 L296.34324,222.753692 L307.596027,222.753692 Z M307.1075,245.411326 L296.34324,245.411326 L296.34324,266.252186 C296.34324,268.865376 294.223906,270.981792 291.609062,270.981792 L202.251468,270.981792 C199.636624,270.981792 197.51729,268.863799 197.51729,266.252186 L197.51729,245.411326 L175.029949,245.411326 L175.029949,266.252186 C175.029949,268.863799 172.909037,270.981792 170.295771,270.981792 L80.9381764,270.981792 C78.3217544,270.981792 76.2039992,268.865376 76.2039992,266.252186 L76.2039992,245.411326 L65.4387921,245.411326 C65.6901748,259.608406 65.5798219,263.15401 65.2944034,263.151369 C36.0040489,262.906925 42.041703,218.679828 42.041703,204.538323 C20.5627409,203.284559 21.7068338,239.695742 24.1354667,257.456602 C26.7566228,276.613161 29.7833401,296.141907 38.9881586,303.274953 C44.4608675,307.51567 53.3484962,307.832659 54.7687494,312.961262 C59.8848169,331.434953 100.882792,414.564989 186.273146,414.566566 C271.6635,414.564989 312.661475,331.434953 317.777543,312.961262 C319.197796,307.832659 328.085424,307.51567 333.558133,303.274953 C342.762952,296.141907 345.789669,276.613161 348.409247,257.456602 C350.839458,239.695742 351.983551,203.284559 330.503011,204.538323 C330.503011,218.679828 336.542243,262.906925 307.251889,263.151369 C306.96647,263.15401 306.856117,259.608406 307.1075,245.411326 Z M186.273146,0.999684588 C213.84026,0.86878853 283.276437,44.9823369 288.888015,61.6834122 C295.204986,65.0977491 337.399129,93.3113692 343.362614,180.152229 C343.362614,180.152229 367.696285,190.026208 370.629897,212.371584 C372.331045,225.325563 380.899905,311.4599 340.321695,325.729147 C319.281433,382.802982 272.965399,440.964989 186.273146,440.966566 C99.5808928,440.964989 53.2648591,382.802982 32.2245975,325.729147 C-8.3536135,311.4599 0.215247257,225.325563 1.91639494,212.371584 C4.85000675,190.026208 29.1836776,180.152229 29.1836776,180.152229 C35.1471629,93.3113692 77.3413063,65.0977491 83.6566987,61.6834122 C89.2698549,44.9823369 158.70761,0.86878853 186.273146,0.999684588 Z M154.767354,194.093763 L96.6316582,194.377634 C81.7505612,195.229247 82.681616,175.169032 92.3077764,173.04 L152.463388,166.05362 C173.435793,163.025663 173.435793,194.440717 154.767354,194.093763 Z M217.77878,194.093763 C199.110341,194.440717 199.110341,163.025663 220.082746,166.05362 L280.238358,173.04 C289.866096,175.169032 290.797151,195.229247 275.914476,194.377634 L217.77878,194.093763 Z M186.273146,372.888315 C162.400268,372.919857 138.970825,366.446022 118.503399,354.165448 C114.179517,350.736918 113.455188,344.455484 116.885889,340.13276 C119.953635,336.270538 125.303256,335.283297 129.493003,337.568459 C146.711205,347.649032 166.315433,352.947957 186.273146,352.913262 C206.229281,352.947957 225.833509,347.649032 243.053289,337.568459 C247.243036,335.283297 252.592657,336.270538 255.660403,340.13276 C259.091104,344.455484 258.366775,350.736918 254.042893,354.165448 C233.575467,366.446022 210.146024,372.919857 186.273146,372.888315 Z" id="Logo-Mark"></path>
            </g>
        </g>
    </g>
</svg>