<?xml version="1.0" encoding="UTF-8" standalone="no"?>
<svg width="512px" height="512px" viewBox="0 0 512 512" version="1.1" xmlns="http://www.w3.org/2000/svg" xmlns:xlink="http://www.w3.org/1999/xlink" xmlns:sketch="http://www.bohemiancoding.com/sketch/ns">
    <!-- Generator: Sketch 3.4.4 (17249) - http://www.bohemiancoding.com/sketch -->
    <title>Danny Face</title>
    <desc>Created with Sketch.</desc>
    <defs></defs>
    <g id="Page-1" stroke="none" stroke-width="1" fill="none" fill-rule="evenodd" sketch:type="MSPage">
        <g id="Danny-Face" sketch:type="MSArtboardGroup" fill="#000000">
            <path d="M187.750191,243.535417 C188.339605,243.535417 187.152957,243.535417 187.750191,243.535417 L187.750191,243.535417 Z M424.649547,170.984099 C424.649547,124.707981 389.776879,73.0571702 357.787744,63.5699295 C312.062727,50.0075638 293.941432,8.95888151 256.109477,8 C218.277521,8 199.999831,49.2639811 153.72059,62.9896434 C121.728522,72.4768841 87.5151566,124.667643 87.5151566,170.941331 C87.5151566,206.531727 48,193.0583 48,265.66648 C48,298.334547 51.8399865,316.583914 55.8744892,330.065603 C61.7573856,349.730207 72.2988987,352.287549 77.6006899,371.492881 C89.8987145,416.033972 160.192411,505 256.101168,505 C353.38278,504.169909 421.666312,416.364453 433.9052,372.032829 C439.209434,352.827497 450.077911,350.025696 455.960807,330.363522 C459.992866,316.879403 464,298.4716 464,265.803046 C464,193.195352 424.649547,206.574981 424.649547,170.984099 L424.649547,170.984099 Z M151.902009,229.186214 C181.948424,227.048292 193.238679,228.737634 223.274342,228.882949 C230.332645,229.006393 235.510297,221.496208 234.796745,212.218434 C234.080749,202.94066 227.72769,196.198357 220.666455,197.211185 C190.62004,201.148771 177.000477,198.884489 146.96237,205.102882 C139.904067,206.655657 137.055723,216.465117 137.771719,221.238141 C138.488203,226.01408 144.841262,229.600287 151.902009,229.186214 L151.902009,229.186214 Z M118.307381,219.065227 C118.307381,205.914019 121.47438,165.614751 132.653692,160.258526 C170.099058,143.110439 205.761032,120.490944 257.104051,120.490944 C305.744857,120.490944 343.292858,143.110439 380.738224,160.258526 C391.917047,165.614751 393.938452,205.914019 393.938452,219.065227 L393.938452,254.932644 L378.343914,254.932644 C377.552164,252.246512 376.47646,251.037826 375.014655,249.850524 C370.485553,246.175864 346.262408,243.906236 324.409137,243.570409 C302.972267,243.653515 282.648245,244.97544 277.886994,248.837696 C276.227741,250.186351 275.084591,252.246512 274.292841,254.932644 L256.636332,255.061435 L237.869419,254.932644 C237.077669,252.246512 235.934519,250.167397 234.275266,248.821658 C229.514015,244.956486 209.189993,243.653515 187.753123,243.570409 C165.899852,243.906236 141.676707,246.191902 137.145161,249.869478 C135.6858,251.053864 134.610096,252.246512 133.818346,254.932644 L118.307381,254.932644 L118.307381,219.065227 L118.307381,219.065227 L118.307381,219.065227 Z M294.486859,278.951824 C295.152027,282.405839 298.208083,284.88785 301.742611,284.852858 L348.008168,284.38581 C351.369683,284.350818 354.296225,282.053974 355.04741,278.798734 C355.555693,276.596174 355.996043,274.159847 355.996043,272.34949 C355.996043,263.979567 352.634528,256.842631 347.197357,251.746903 C358.352232,252.128414 363.478567,253.009535 365.52441,255.042967 C368.880549,258.375967 368.688476,270.858437 368.640092,270.831706 C368.588775,273.313718 368.101995,282.978349 365.434971,285.589151 C361.898,289.056773 350.726508,297.106907 323.612011,297.106907 C296.495069,297.106907 291.098464,289.059203 287.55856,285.591581 C284.89398,282.980779 284.515699,273.32441 284.467315,270.839483 C284.418441,270.866699 284.280618,258.394921 287.636758,255.061435 C289.882492,252.826799 291.336477,251.986015 303.472242,251.669142 C297.551224,257.145896 293.844174,264.906373 293.844174,273.692313 C293.844174,275.148374 294.130572,277.092867 294.486859,278.951824 L294.486859,278.951824 L294.486859,278.951824 Z M157.11485,278.798734 C157.863103,282.053974 160.792577,284.350818 164.151649,284.38581 L210.416717,284.852858 C213.954176,284.88785 217.010233,282.405839 217.6754,278.951824 C218.031688,277.092867 218.318575,275.148374 218.318575,273.692313 C218.318575,264.906373 214.611036,257.145896 208.690018,251.669142 C220.826271,251.986015 222.279768,252.826799 224.525502,255.061435 C227.878709,258.394921 227.743819,270.866699 227.695434,270.839483 C227.643628,273.32441 227.26828,282.980779 224.6037,285.591581 C221.063796,289.059203 215.664747,297.106907 188.550249,297.106907 C161.435751,297.106907 150.26426,289.056773 146.724356,285.589151 C144.060265,282.978349 143.571042,273.313718 143.522168,270.831706 C143.473783,270.858437 143.281711,258.375967 146.63785,255.042967 C148.683692,253.009535 153.810028,252.128414 164.964903,251.746903 C159.527732,256.842631 156.166217,263.979567 156.166217,272.34949 C156.166217,274.159847 156.606566,276.596174 157.11485,278.798734 L157.11485,278.798734 L157.11485,278.798734 Z M440.974255,281.439181 C440.974255,305.031166 435.480391,324.553371 426.868401,330.933117 C419.561333,336.351064 414.127094,347.747806 410.725014,360.485427 C404.247817,384.730112 350.756321,475.192539 256.079664,475.192539 C161.405939,475.192539 107.914443,384.692689 101.437246,360.448005 C98.0351654,347.707468 92.6009272,336.30781 85.2938586,330.892778 C76.6818691,324.510603 71.1880053,304.896543 71.1880053,281.304559 C71.1880053,257.712574 69.5668732,227.333089 82.9376699,227.333089 C96.3055342,227.333089 95.481528,273.063913 95.5651015,281.376973 C95.5895383,283.756924 97.2595438,287.16574 99.3132059,287.16574 L113.721586,287.16574 C115.791865,287.16574 118.307381,285.191601 118.307381,282.795612 L118.307381,273.735081 L131.883446,273.735081 C132.172777,279.107345 132.91321,287.498652 137.150537,291.143665 C141.757837,295.106037 155.193635,307.139441 187.753123,307.139441 C220.309679,307.139441 230.521785,294.990369 234.040184,290.961414 C237.628473,286.848867 239.058021,279.107345 239.361036,273.735081 L256.755583,274.006756 L272.801224,273.735081 C273.104239,279.107345 274.533787,286.832829 278.122076,290.94489 C281.640475,294.974331 291.852581,307.139441 324.409137,307.139441 C356.968625,307.139441 370.404423,295.122075 375.011723,291.160189 C379.24905,287.515176 379.989483,279.107345 380.278814,273.735081 L393.938452,273.735081 L393.938452,282.795612 C393.938452,285.191601 396.370395,287.16574 398.440674,287.16574 L412.849054,287.16574 C414.902716,287.16574 416.572722,283.751578 416.597158,281.374543 C416.680732,273.060997 415.856726,227.359819 429.22459,227.359819 C442.595387,227.359819 440.974255,257.847197 440.974255,281.439181 L440.974255,281.439181 Z M334.515676,397.899788 C331.824215,393.000404 325.595295,391.576905 320.258804,393.924779 C299.881021,402.936224 277.697854,408.040215 256.079664,408.040215 C234.461473,408.040215 212.281238,402.936224 191.903456,393.924779 C186.566476,391.576905 180.011081,393.000404 177.319621,397.899788 C174.630604,402.78848 177.443759,409.146841 183.61061,411.867479 C206.628536,422.045328 231.781254,427.106065 256.101168,427.106065 C280.421571,426.917982 305.298643,422.536676 327.897723,412.544479 C334.064574,409.823355 337.20176,402.78848 334.515676,397.899788 L334.515676,397.899788 Z M324.409137,243.535417 L324.412069,243.535417 C325.009302,243.535417 323.822655,243.535417 324.409137,243.535417 L324.409137,243.535417 Z M288.887918,228.882949 C318.923581,228.737634 330.213835,227.048292 360.260251,229.186214 C367.321486,229.600287 373.674056,226.01408 374.387609,221.238141 C375.106537,216.465117 372.258193,206.655657 365.197446,205.102882 C335.161783,198.884489 321.54222,201.148771 291.495805,197.211185 C284.43457,196.198357 278.081511,202.94066 277.365515,212.218434 C276.649519,221.496208 281.827171,229.006393 288.887918,228.882949 L288.887918,228.882949 Z" id="Fill-1" sketch:type="MSShapeGroup"></path>
        </g>
    </g>
</svg>