<?xml version="1.0" encoding="UTF-8" standalone="no"?>
<svg width="98px" height="117px" viewBox="0 0 98 117" version="1.1" xmlns="http://www.w3.org/2000/svg" xmlns:xlink="http://www.w3.org/1999/xlink" xmlns:sketch="http://www.bohemiancoding.com/sketch/ns">
    <!-- Generator: Sketch 3.4.4 (17249) - http://www.bohemiancoding.com/sketch -->
    <title>Fill 1</title>
    <desc>Created with Sketch.</desc>
    <defs></defs>
    <g id="Page-1" stroke="none" stroke-width="1" fill="none" fill-rule="evenodd" sketch:type="MSPage">
        <g id="Desktop-HD" sketch:type="MSArtboardGroup" transform="translate(-671.000000, -219.000000)" fill="#10A78D">
            <g id="Hero" sketch:type="MSLayerGroup">
                <path d="M703.92192,274.447975 C704.060772,274.447975 703.781226,274.447975 703.92192,274.447975 Z M759.729941,257.36849 C759.729941,246.474515 751.514745,234.315269 743.978843,232.081855 C733.207085,228.889105 728.938126,219.225733 720.02579,219 C711.113455,219 706.807652,228.714056 695.905331,231.945248 C688.368738,234.178663 680.308859,246.465019 680.308859,257.358422 C680.308859,265.736845 671,262.565032 671,279.657904 C671,287.348374 671.904612,291.644503 672.855048,294.818261 C674.240923,299.447554 676.72426,300.049584 677.973239,304.570759 C680.87037,315.056287 697.429943,336 720.023833,336 C742.941136,335.804586 759.02716,315.134087 761.91036,304.697869 C763.159915,300.176694 765.720277,299.517116 767.106152,294.888395 C768.056012,291.714065 769,287.380638 769,279.690053 C769,262.597296 759.729941,265.747028 759.729941,257.36849 Z M695.476916,271.069994 C702.555158,270.566701 705.214881,270.964393 712.29059,270.998602 C713.953363,271.027662 715.173099,269.259671 715.005002,267.075567 C714.83633,264.891463 713.339696,263.304241 711.676232,263.542673 C704.59799,264.46963 701.389535,263.93659 694.313251,265.400477 C692.650477,265.76602 691.979473,268.075289 692.148145,269.198918 C692.316933,270.323234 693.813567,271.167472 695.476916,271.069994 Z M687.562797,268.687387 C687.562797,265.591429 688.308868,256.104479 690.942456,254.843556 C699.76372,250.806683 708.164859,245.481772 720.260089,245.481772 C731.71874,245.481772 740.564183,250.806683 749.385447,254.843556 C752.01892,256.104479 752.495116,265.591429 752.495116,268.687387 L752.495116,277.131025 L748.821403,277.131025 C748.634885,276.498676 748.381474,276.214136 748.037106,275.93463 C746.970154,275.06957 741.26374,274.535271 736.115614,274.456213 C731.065582,274.475777 726.277712,274.786975 725.156071,275.696198 C724.765189,276.013688 724.495889,276.498676 724.309371,277.131025 L720.149905,277.161344 L715.728853,277.131025 C715.542335,276.498676 715.273036,276.009226 714.882154,275.692422 C713.760513,274.782513 708.972643,274.475777 703.922611,274.456213 C698.774484,274.535271 693.06807,275.073345 692.000543,275.939092 C691.656751,276.217912 691.40334,276.498676 691.216822,277.131025 L687.562797,277.131025 L687.562797,268.687387 L687.562797,268.687387 Z M729.066616,282.78544 C729.223314,283.598558 729.94325,284.182854 730.775904,284.174616 L741.675001,284.064668 C742.466896,284.05643 743.156322,283.515724 743.333284,282.7494 C743.453024,282.23089 743.55676,281.657348 743.55676,281.231168 C743.55676,279.260783 742.764865,277.58066 741.483993,276.381062 C744.111824,276.470874 745.31947,276.678301 745.801423,277.156996 C746.592052,277.941626 746.546805,280.880155 746.535406,280.873862 C746.523317,281.458159 746.408643,283.733334 745.780354,284.347949 C744.947125,285.164271 742.315379,287.059372 735.927829,287.059372 C729.539704,287.059372 728.268388,285.164843 727.434468,284.348521 C726.806755,283.733906 726.717641,281.460676 726.706242,280.875693 C726.694729,280.8821 726.662261,277.946088 727.45289,277.161344 C727.981933,276.635283 728.324459,276.437352 731.183365,276.362756 C729.78851,277.652052 728.915214,279.478965 728.915214,281.547285 C728.915214,281.89006 728.982683,282.347818 729.066616,282.78544 L729.066616,282.78544 Z M696.704941,282.7494 C696.881212,283.515724 697.571328,284.05643 698.362648,284.064668 L709.26163,284.174616 C710.094974,284.182854 710.814911,283.598558 710.971609,282.78544 C711.055542,282.347818 711.123126,281.89006 711.123126,281.547285 C711.123126,279.478965 710.249715,277.652052 708.85486,276.362756 C711.713881,276.437352 712.056291,276.635283 712.585335,277.161344 C713.375273,277.946088 713.343496,280.8821 713.332097,280.875693 C713.319893,281.460676 713.23147,283.733906 712.603756,284.348521 C711.769837,285.164843 710.497945,287.059372 704.110395,287.059372 C697.722845,287.059372 695.0911,285.164271 694.25718,284.347949 C693.629582,283.733334 693.514332,281.458159 693.502818,280.873862 C693.49142,280.880155 693.446172,277.941626 694.236801,277.156996 C694.718754,276.678301 695.926401,276.470874 698.554232,276.381062 C697.27336,277.58066 696.481465,279.260783 696.481465,281.231168 C696.481465,281.657348 696.585201,282.23089 696.704941,282.7494 L696.704941,282.7494 Z M763.575666,283.370994 C763.575666,288.924842 762.281438,293.520613 760.252652,295.022484 C758.531275,296.297937 757.251094,298.980872 756.449643,301.979467 C754.923764,307.686968 742.322403,328.982952 720.018767,328.982952 C697.715822,328.982952 685.11446,307.678158 683.588582,301.970657 C682.78713,298.971376 681.506949,296.287754 679.785572,295.012988 C677.756786,293.510544 676.462559,288.89315 676.462559,283.339303 C676.462559,277.785455 676.080658,270.633745 679.230509,270.633745 C682.379669,270.633745 682.185552,281.399352 682.20524,283.35635 C682.210997,283.91662 682.604412,284.719098 683.088207,284.719098 L686.482489,284.719098 C686.970199,284.719098 687.562797,284.254361 687.562797,283.690315 L687.562797,281.557353 L690.761004,281.557353 C690.829164,282.822051 691.003593,284.797469 692.001809,285.655551 C693.087183,286.588343 696.252347,289.421156 703.922611,289.421156 C711.592184,289.421156 713.997921,286.561113 714.826774,285.612647 C715.672092,284.644502 716.008861,282.822051 716.080244,281.557353 L720.177998,281.621309 L723.957981,281.557353 C724.029364,282.822051 724.366133,284.640726 725.21145,285.608757 C726.040304,286.557337 728.446041,289.421156 736.115614,289.421156 C743.785878,289.421156 746.951042,286.592118 748.036415,285.659441 C749.034632,284.801359 749.209061,282.822051 749.277221,281.557353 L752.495116,281.557353 L752.495116,283.690315 C752.495116,284.254361 753.068026,284.719098 753.555736,284.719098 L756.950018,284.719098 C757.433813,284.719098 757.827228,283.915361 757.832984,283.355778 C757.852672,281.398665 757.658556,270.640038 760.807716,270.640038 C763.957567,270.640038 763.575666,277.817147 763.575666,283.370994 Z M738.496481,310.787274 C737.862435,309.633898 736.395045,309.298788 735.137891,309.851507 C730.337356,311.972914 725.111514,313.174457 720.018767,313.174457 C714.92602,313.174457 709.700869,311.972914 704.900333,309.851507 C703.643064,309.298788 702.098764,309.633898 701.464718,310.787274 C700.831248,311.938133 701.493962,313.434971 702.94673,314.075443 C708.369222,316.471435 714.294622,317.662796 720.023833,317.662796 C725.753159,317.618519 731.613623,316.587105 736.937444,314.234817 C738.390212,313.594231 739.129261,311.938133 738.496481,310.787274 Z M736.115614,274.447975 L736.116305,274.447975 C736.256999,274.447975 735.977452,274.447975 736.115614,274.447975 Z M727.747634,270.998602 C734.823344,270.964393 737.483067,270.566701 744.561309,271.069994 C746.224773,271.167472 747.721292,270.323234 747.889389,269.198918 C748.058752,268.075289 747.387747,265.76602 745.724398,265.400477 C738.648689,263.93659 735.440235,264.46963 728.361992,263.542673 C726.698528,263.304241 725.201894,264.891463 725.033222,267.075567 C724.86455,269.259671 726.084286,271.027662 727.747634,270.998602 Z" id="Fill-1" sketch:type="MSShapeGroup"></path>
            </g>
        </g>
    </g>
</svg>