<?xml version="1.0" encoding="UTF-8" standalone="no"?>
<svg width="512px" height="512px" viewBox="0 0 512 512" version="1.1" xmlns="http://www.w3.org/2000/svg" xmlns:xlink="http://www.w3.org/1999/xlink" xmlns:sketch="http://www.bohemiancoding.com/sketch/ns">
    <!-- Generator: Sketch 3.4.4 (17249) - http://www.bohemiancoding.com/sketch -->
    <title>dribbble</title>
    <desc>Created with Sketch.</desc>
    <defs></defs>
    <g id="Page-1" stroke="none" stroke-width="1" fill="none" fill-rule="evenodd" sketch:type="MSPage">
        <g id="dribbble" sketch:type="MSArtboardGroup" fill="#242424">
            <path d="M256.5,497 C123.681261,497 16,389.339652 16,256.5 C16,123.660348 123.681261,16 256.5,16 C389.339652,16 497,123.660348 497,256.5 C497,389.339652 389.318739,497 256.5,497 L256.5,497 Z M446.850522,283.394174 C423.176957,277.496696 378.653087,269.528826 328.043522,275.698174 C354.812217,344.962174 365.624261,399.210609 368.071087,413.055043 C410.022652,383.107565 439.342739,336.764261 446.850522,283.394174 L446.850522,283.394174 Z M333.627304,432.713304 C323.944565,379.656913 307.046826,329.528348 287.827739,283.686957 C233.600217,298.765261 177.218652,333.480913 134.827913,405.505435 C167.996,432.608739 210.344913,448.9 256.520913,448.9 C283.937913,448.9 309.995565,443.065261 333.627304,432.713304 L333.627304,432.713304 Z M64.1,256.5 C64.1,302.94787 80.5585652,345.547739 107.954652,378.799478 C129.160478,343.644652 180.460174,276.158261 273.104957,249.97513 C267.019261,236.967217 260.891739,224.00113 254.659652,212.03887 C167.284957,245.792522 101.471609,248.406652 64.8946957,245.520652 C64.6855652,249.180435 64.1,252.756565 64.1,256.5 L64.1,256.5 Z M70.0393043,210.784087 C118.871261,211.244174 183.283435,202.795304 238.807565,182.886087 C213.272739,137.567522 189.076348,102.496348 174.479043,82.6707826 C122.719261,107.11813 83.9673913,154.067913 70.0393043,210.784087 L70.0393043,210.784087 Z M256.5,64.1 C240.689739,64.1 225.402304,66.2122174 210.679522,69.8092609 C236.653522,101.492522 258.361261,134.493304 276.806565,167.013087 C327.165174,143.214043 359.998652,118.076565 374.972391,105.110478 C342.306217,79.512913 301.233,64.1 256.5,64.1 L256.5,64.1 Z M403.497783,132.485652 C363.930304,159.275261 326.809652,180.041913 292.428609,195.935826 C300.417391,211.516043 307.548739,226.824391 314.031783,241.693565 C352.741826,236.779 397.412087,239.058522 448.502652,252.129174 C447.457,206.622391 430.872957,164.963609 403.497783,132.485652 L403.497783,132.485652 Z" id="Shape" sketch:type="MSShapeGroup"></path>
        </g>
    </g>
</svg>