<?xml version="1.0" encoding="UTF-8" standalone="no"?>
<svg width="512px" height="512px" viewBox="0 0 512 512" version="1.1" xmlns="http://www.w3.org/2000/svg" xmlns:xlink="http://www.w3.org/1999/xlink" xmlns:sketch="http://www.bohemiancoding.com/sketch/ns">
    <!-- Generator: Sketch 3.4.4 (17249) - http://www.bohemiancoding.com/sketch -->
    <title>linkedin</title>
    <desc>Created with Sketch.</desc>
    <defs></defs>
    <g id="Page-1" stroke="none" stroke-width="1" fill="none" fill-rule="evenodd" sketch:type="MSPage">
        <g id="linkedin" sketch:type="MSArtboardGroup" fill="#242424">
            <path d="M450.269091,496.011409 L61.7090909,496.011409 C36.4436364,496.011409 16,475.545955 16,450.302318 L16,61.7205 C16,36.4768636 36.4654545,15.9895909 61.7090909,15.9895909 L450.269091,15.9895909 C475.512727,15.9895909 496,36.4550455 496,61.7205 L496,450.302318 C496,475.567773 475.534545,496.011409 450.269091,496.011409 L450.269091,496.011409 Z M134.276364,118.731409 C114.574545,118.731409 101.68,133.415045 101.68,152.745955 C101.68,171.6405 114.181818,186.7605 133.512727,186.7605 L133.883636,186.7605 C153.956364,186.7605 166.458182,171.662318 166.458182,152.745955 C166.109091,133.415045 153.978182,118.731409 134.276364,118.731409 L134.276364,118.731409 Z M170.145455,208.011409 L105.105455,208.011409 L105.105455,410.418682 L170.145455,410.418682 L170.145455,208.011409 L170.145455,208.011409 Z M427.250909,298.338682 C427.250909,238.295045 396.16,204.825955 351.869091,204.825955 C316.087273,204.825955 300.116364,223.807773 291.192727,237.095045 L291.192727,209.407773 L221.745455,209.407773 C222.64,227.735045 221.745455,410.396864 221.745455,410.396864 L291.192727,410.396864 L291.192727,301.2405 C291.192727,295.393227 291.629091,289.567773 293.418182,285.4005 C298.283636,273.705955 309.367273,261.618682 327.956364,261.618682 C352.327273,261.618682 359.92,279.553227 359.92,305.8005 L359.92,410.375045 L427.250909,410.375045 L427.250909,298.338682 L427.250909,298.338682 Z M290.756364,237.771409 C290.887273,237.553227 291.061818,237.313227 291.214545,237.116864 L291.214545,237.771409 L290.756364,237.771409 L290.756364,237.771409 Z" id="Shape" sketch:type="MSShapeGroup"></path>
        </g>
    </g>
</svg>