<?xml version="1.0" encoding="UTF-8" standalone="no"?>
<svg width="512px" height="512px" viewBox="0 0 512 512" version="1.1" xmlns="http://www.w3.org/2000/svg" xmlns:xlink="http://www.w3.org/1999/xlink" xmlns:sketch="http://www.bohemiancoding.com/sketch/ns">
    <!-- Generator: Sketch 3.4.4 (17249) - http://www.bohemiancoding.com/sketch -->
    <title>mail</title>
    <desc>Created with Sketch.</desc>
    <defs></defs>
    <g id="Page-1" stroke="none" stroke-width="1" fill="none" fill-rule="evenodd" sketch:type="MSPage">
        <g id="mail" sketch:type="MSArtboardGroup" fill="#242424">
            <path d="M495.117117,76.9817682 C495.309132,77.9034427 495.693163,78.748311 495.693163,79.7467917 L495.693163,433.03614 C495.693163,441.177598 488.97262,447.76373 480.696751,447.76373 L30.9772103,447.76373 C22.7013415,447.76373 16,441.177598 16,433.03614 L16,79.7467917 C16,78.575497 16.4032326,77.5194117 16.6720543,76.4249232 C15.615969,73.2566672 15.6927752,69.8195895 18.22738,67.2849846 C20.7619848,64.7503798 24.1990626,64.6735736 27.3673186,65.7104574 C28.5770163,65.4032326 29.7099079,65 30.9772103,65 L480.696751,65 C482.060061,65 483.288961,65.4224341 484.537062,65.7680621 C487.743721,64.6543721 491.238403,64.7119767 493.773008,67.2849846 C496.461225,69.9540003 496.461225,73.6598998 495.117117,76.9817682 L495.117117,76.9817682 Z M35.1247454,99.1019557 L35.1247454,414.890674 C35.1247454,423.089737 41.8836916,429.714272 50.1979635,429.714272 L461.4952,429.714272 C469.828673,429.714272 476.568418,423.089737 476.568418,414.890674 L476.568418,99.1019557 C476.568418,97.2586068 476.126782,95.5496687 475.493131,93.9175368 L263.085567,253.501632 C262.912753,253.732051 262.989559,254.039276 262.778342,254.269695 C260.89659,256.132245 258.438791,256.881106 255.980992,256.785098 C253.523194,256.881106 251.065395,256.132245 249.183643,254.269695 C248.953225,254.058477 249.049232,253.732051 248.857217,253.501632 L36.1616292,93.7063197 C35.5663811,95.3768547 35.1247454,97.1818006 35.1247454,99.1019557 L35.1247454,99.1019557 Z M256.019396,236.239438 L458.28854,84.2591563 L53.7502505,84.2591563 L256.019396,236.239438 L256.019396,236.239438 Z" id="Shape" sketch:type="MSShapeGroup"></path>
        </g>
    </g>
</svg>