<?xml version="1.0" encoding="utf-8"?>
<!-- Generator: Adobe Illustrator 21.0.0, SVG Export Plug-In . SVG Version: 6.00 Build 0)  -->
<!DOCTYPE svg PUBLIC "-//W3C//DTD SVG 1.1//EN" "http://www.w3.org/Graphics/SVG/1.1/DTD/svg11.dtd">
<svg version="1.1" id="Layer_1" xmlns="http://www.w3.org/2000/svg" xmlns:xlink="http://www.w3.org/1999/xlink" x="0px" y="0px"
	 viewBox="0 0 512 512" style="enable-background:new 0 0 512 512;" xml:space="preserve">
<title>Group 5</title>
<desc>Created with Sketch.</desc>
<g id="Energy-Hog">
	<g id="Energy-Hog-Case-Study" transform="translate(-618.000000, -4179.000000)">
		<g id="_x2D_" transform="translate(540.000000, 4159.000000)">
			<g id="Group-6" transform="translate(78.000000, 20.000000)">
				<g id="Group-5">
					<path id="Combined-Shape" d="M273.2,14v155.5h155.5L273.2,14z M256,178V14H100.5c-9.7,0-17.3,7.6-17.3,17.3v449.3
						c0,9.7,7.6,17.5,17.3,17.5h311c9.7,0,17.3-7.8,17.3-17.5V186.8h-164C259.8,186.8,256,183,256,178z M176.9,421
						c-11.5,0-20.6-4.2-27.2-12.6h-1.4c0.9,8.2,1.4,13,1.4,14.2v39.8h-26.8V320.9h21.8l3.8,12.8h1.2c6.3-9.7,15.6-14.6,27.9-14.6
						c11.6,0,20.7,4.5,27.3,13.5c6.6,9,9.8,21.4,9.8,37.4c0,10.5-1.5,19.6-4.6,27.3c-3.1,7.7-7.5,13.6-13.1,17.7
						C191.3,418.9,184.6,421,176.9,421z M169,340.5c-6.6,0-11.5,2-14.5,6.1c-3,4.1-4.6,10.8-4.7,20.2v2.9c0,10.6,1.6,18.1,4.7,22.7
						c3.1,4.6,8.1,6.9,14.9,6.9c12,0,18-9.9,18-29.7c0-9.7-1.5-16.9-4.4-21.8C180,342.9,175.3,340.5,169,340.5z M268,421
						c-11.5,0-20.6-4.5-27.2-13.5c-6.6-9-9.9-21.4-9.9-37.3c0-16.1,3.4-28.7,10.1-37.7c6.7-9,16-13.5,27.7-13.5
						c12.4,0,21.8,4.8,28.3,14.4h0.9c-1.3-7.3-2-13.9-2-19.6v-31.5h26.9v136.8h-20.6l-5.2-12.8h-1.1C289.8,416.1,280.5,421,268,421z
						 M277.4,399.6c6.9,0,11.9-2,15.1-6c3.2-4,4.9-10.8,5.2-20.3v-2.9c0-10.6-1.6-18.1-4.9-22.7c-3.3-4.6-8.5-6.9-15.9-6.9
						c-6,0-10.6,2.5-13.9,7.6c-3.3,5.1-5,12.4-5,22.1s1.7,16.9,5,21.8C266.4,397.2,271.2,399.6,277.4,399.6z M405.2,341H382v78.2
						h-26.8V341h-14.8v-12.9l14.8-7.2v-7.2c0-11.2,2.8-19.4,8.3-24.5s14.3-7.7,26.5-7.7c9.3,0,17.5,1.4,24.7,4.1l-6.9,19.7
						c-5.4-1.7-10.4-2.6-14.9-2.6c-3.8,0-6.6,1.1-8.3,3.4c-1.7,2.3-2.6,5.1-2.6,8.7v6.2h23.2V341z"/>
				</g>
			</g>
		</g>
	</g>
</g>
</svg>
