<?xml version="1.0" encoding="UTF-8" standalone="no"?>
<svg width="512px" height="512px" viewBox="0 0 512 512" version="1.1" xmlns="http://www.w3.org/2000/svg" xmlns:xlink="http://www.w3.org/1999/xlink" xmlns:sketch="http://www.bohemiancoding.com/sketch/ns">
    <!-- Generator: Sketch 3.4.4 (17249) - http://www.bohemiancoding.com/sketch -->
    <title>phone</title>
    <desc>Created with Sketch.</desc>
    <defs></defs>
    <g id="Page-1" stroke="none" stroke-width="1" fill="none" fill-rule="evenodd" sketch:type="MSPage">
        <g id="phone" sketch:type="MSArtboardGroup" fill="#242424">
            <path d="M347.76,496 L163.44,496 C129.5136,496 102,469.1392 102,436 L102,342.4192 L102,323.2 L102,112 L102,92.8 L102,75.9808 C102,42.8416 129.5136,16 163.44,16 L347.76,16 C381.6864,16 409.2,42.8416 409.2,75.9808 L409.2,92.8 L409.2,112 L409.2,323.2 L409.2,342.4192 L409.2,436 C409.2,469.12 381.6864,496 347.76,496 L347.76,496 Z M390,73.6192 C390,52.4224 372.7968,35.2192 351.6,35.2192 L159.6,35.2192 C138.4032,35.2192 121.2,52.4224 121.2,73.6192 L121.2,92.8192 L390,92.8192 L390,73.6192 L390,73.6192 Z M390,112 L121.2,112 L121.2,323.2 L390,323.2 L390,112 L390,112 Z M121.2,342.4192 L121.2,438.4192 C121.2,459.616 138.4032,476.8384 159.6,476.8384 L351.6,476.8384 C372.7968,476.8384 390,459.6352 390,438.4192 L390,342.4192 L121.2,342.4192 L121.2,342.4192 Z M265.2,438.3808 C249.2256,438.3808 236.2848,425.4976 236.2848,409.5808 C236.2848,393.6832 249.2256,380.7808 265.2,380.7808 C281.1744,380.7808 294.096,393.6832 294.096,409.5808 C294.096,425.4976 281.1744,438.3808 265.2,438.3808 L265.2,438.3808 Z" id="Shape" sketch:type="MSShapeGroup"></path>
        </g>
    </g>
</svg>