<?xml version="1.0" encoding="UTF-8" standalone="no"?>
<svg width="512px" height="512px" viewBox="0 0 512 512" version="1.1" xmlns="http://www.w3.org/2000/svg" xmlns:xlink="http://www.w3.org/1999/xlink" xmlns:sketch="http://www.bohemiancoding.com/sketch/ns">
    <!-- Generator: Sketch 3.4.4 (17249) - http://www.bohemiancoding.com/sketch -->
    <title>vimeo</title>
    <desc>Created with Sketch.</desc>
    <defs></defs>
    <g id="Page-1" stroke="none" stroke-width="1" fill="none" fill-rule="evenodd" sketch:type="MSPage">
        <g id="vimeo" sketch:type="MSArtboardGroup" fill="#242424">
            <path d="M154.375905,69.3266759 C154.375905,69.3266759 197.619614,49.3267002 214.798096,81.2076596 C228.540882,90.6510263 223.051445,223.376393 229.922838,262.359072 C236.794231,301.303362 260.172322,322.723682 275.316257,307.637328 C305.565741,277.445426 305.565741,277.445426 350.95916,217.042428 C390.863142,163.933087 346.141507,153.126958 335.815224,156.658624 C325.508135,160.228677 270.959257,165.19988 290.440999,141.57227 C309.922741,117.963853 368.598294,70.8237951 381.208644,66.063724 C405.258518,49.57622 457.312198,30.6702928 487.10103,66.063724 C502.225771,96.2940137 498.636524,139.9216 471.976288,201.956074 C426.582869,307.637328 236.851813,455.986477 236.851813,455.986477 C236.851813,455.986477 163.224263,483.625599 139.155194,443.49129 C115.105319,403.356982 108.886516,228.002108 108.886516,201.956074 C108.886516,156.658624 93.7617746,171.764172 63.5122911,186.86972 C49.9806376,193.62595 5.89239927,196.17873 18.118872,171.764172 C33.2820014,141.57227 144.068815,77.5800249 154.375905,69.3266759 L154.375905,69.3266759 Z" id="Shape" sketch:type="MSShapeGroup"></path>
        </g>
    </g>
</svg>