<?xml version="1.0" encoding="UTF-8"?>
<svg width="164px" height="164px" viewBox="0 0 164 164" version="1.1" xmlns="http://www.w3.org/2000/svg" xmlns:xlink="http://www.w3.org/1999/xlink">
    <!-- Generator: Sketch 44.1 (41455) - http://www.bohemiancoding.com/sketch -->
    <title>Logo@1x</title>
    <desc>Created with Sketch.</desc>
    <defs>
        <rect id="path-1" x="0" y="0" width="164" height="164" rx="37"></rect>
    </defs>
    <g id="CreativeMornings" stroke="none" stroke-width="1" fill="none" fill-rule="evenodd">
        <g id="CreativeMornings-Showcase" transform="translate(-151.000000, -857.000000)">
            <g id="Title" transform="translate(0.000000, 725.000000)">
                <g id="Logo" transform="translate(151.000000, 132.000000)">
                    <mask id="mask-2" fill="white">
                        <use xlink:href="#path-1"></use>
                    </mask>
                    <use id="Rectangle" fill="#F997A6" xlink:href="#path-1"></use>
                    <g id="tinysummit" mask="url(#mask-2)">
                        <g transform="translate(-36.000000, 10.000000)">
                            <path d="M117.809105,218.189981 C97.785413,218.189981 50.2027858,204.127654 23.6220639,195.744587 C18.9963243,194.280375 14.3643006,192.790192 10.2252237,191.437587 C7.10974438,190.419096 4.58566154,189.583106 2.81775621,188.987875 C1.90238343,188.680433 1.19438343,187.980615 0.875294675,187.067413 C0.556904142,186.156317 0.672809467,185.166606 1.19368521,184.351673 L23.6262533,149.206385 L45.7076142,114.584029 C46.2801586,113.687673 47.2541822,113.152106 48.3147858,113.152106 C49.3746911,113.152106 50.3487148,113.687673 50.9212592,114.584029 L66.3604071,138.787038 C66.6794959,139.286106 67.2003716,139.57249 67.7868805,139.57249 C68.3342888,139.57249 69.0332118,139.297337 69.3557917,138.527327 L83.078703,105.814202 L114.958253,29.6548462 C115.450502,28.4798269 116.543224,27.7498269 117.809105,27.7498269 C119.074987,27.7498269 120.167709,28.4798269 120.659957,29.6541442 L152.539508,105.719442 L166.274987,138.507673 C166.599662,139.278385 167.302076,139.553538 167.849484,139.553538 C168.437389,139.553538 168.957567,139.267154 169.277354,138.767385 L184.69765,114.584029 C185.269496,113.687673 186.244218,113.152106 187.304123,113.152106 C188.364028,113.152106 189.338052,113.687673 189.910596,114.584029 L211.991957,149.186731 L234.425224,184.352375 C234.945401,185.166606 235.062005,186.156317 234.742916,187.067413 C234.423827,187.980615 233.715827,188.680433 232.800454,188.987875 C231.031851,189.583106 228.51475,190.419096 225.399271,191.437587 C221.637236,192.661038 217.105756,194.129462 212.003129,195.738971 C185.414028,204.123442 137.821626,218.189981 117.809105,218.189981" id="Fill-1" stroke="none" fill="#F8F9F9" fill-rule="evenodd"></path>
                            <g id="Group-5" stroke="none" stroke-width="1" fill="none" fill-rule="evenodd" transform="translate(0.000000, 26.564981)">
                                <path d="M117.809105,0.483274038 C116.256951,0.483274038 114.917756,1.37752404 114.31449,2.81716827 L82.4349396,78.977226 L68.7127266,111.688245 C68.4732355,112.261014 67.9432828,112.305236 67.7868805,112.305236 C67.5843953,112.305236 67.2059574,112.24487 66.9476142,111.841264 L51.5084663,87.6403606 C50.8074485,86.541149 49.613484,85.884851 48.3140876,85.884851 C47.0153893,85.884851 45.8207266,86.541149 45.1197089,87.6410625 L23.0390462,122.262716 L0.605779882,157.408707 C-0.0316994083,158.405438 -0.174137278,159.619063 0.216868639,160.735822 C0.607874556,161.853986 1.47506982,162.711736 2.59572071,163.088668 C4.45299882,163.71338 7.01618225,164.560601 10.0094722,165.539784 C14.1289988,166.887476 18.7631172,168.377659 23.4112,169.848889 C82.321129,188.427389 107.260324,192.327274 117.809105,192.327274 C128.351602,192.327274 153.287307,188.425986 212.211898,169.843274 C217.322904,168.230957 221.854383,166.763236 225.613626,165.539784 C229.208786,164.364764 231.626738,163.558255 233.02249,163.08937 C234.143141,162.711736 235.010336,161.853986 235.401342,160.735822 C235.792348,159.619063 235.64991,158.405438 235.011733,157.407303 L212.579164,122.243063 L190.497804,87.6403606 C189.797484,86.541149 188.602821,85.884851 187.304123,85.884851 C186.004727,85.884851 184.810762,86.541149 184.109744,87.6410625 L168.68875,111.824418 C168.431105,112.225918 168.052667,112.286284 167.849484,112.286284 C167.692383,112.286284 167.159638,112.241361 166.917354,111.667188 L153.183271,78.8824663 L121.303721,2.81646635 C120.700454,1.37752404 119.361259,0.483274038 117.809105,0.483274038 M117.809105,1.88712019 C118.707022,1.88712019 119.60494,2.37846635 120.016892,3.36186058 L151.896443,79.4271587 L165.631224,112.215389 C166.040383,113.184745 166.94249,113.69013 167.849484,113.69013 C168.616135,113.69013 169.385579,113.329341 169.863863,112.581793 L185.284857,88.3984375 C185.756857,87.6586106 186.53049,87.2886971 187.304123,87.2886971 C188.077756,87.2886971 188.850691,87.6586106 189.322691,88.3984375 L211.404052,123.001139 L233.837318,158.166784 C234.68636,159.49412 234.063543,161.258053 232.579117,161.757822 C230.81191,162.352351 228.296206,163.186937 225.18352,164.204726 C221.472454,165.412034 216.925614,166.88537 211.793662,168.504005 C183.48623,177.431062 137.487875,190.923428 117.809105,190.923428 C98.1303361,190.923428 52.1382651,177.43738 23.8308331,168.510322 C18.6988805,166.88537 14.1520402,165.418351 10.4409751,164.204726 C7.32828876,163.186937 4.80630059,162.352351 3.03909349,161.757822 C1.55466746,161.258053 0.931850888,159.49412 1.78089231,158.166784 L24.2141586,123.020091 L46.2955195,88.3984375 C46.7675195,87.6586106 47.5404544,87.2886971 48.3140876,87.2886971 C49.0877207,87.2886971 49.8613538,87.6586106 50.3333538,88.3984375 L65.7732,112.600745 C66.251484,113.348293 67.0209278,113.709082 67.7868805,113.709082 C68.6931763,113.709082 69.5938864,113.203697 69.999555,112.234341 L83.721768,79.5219183 L115.601318,3.36186058 C116.013271,2.37846635 116.911188,1.88712019 117.809105,1.88712019" id="Fill-3" fill="#44515C"></path>
                            </g>
                            <path d="M225.18324,190.769496 C221.472873,191.976804 216.925335,193.45014 211.793382,195.068775 C183.486649,203.995833 137.487595,217.488198 117.808826,217.488198 C98.130755,217.488198 52.1379858,204.00215 23.8305538,195.075092 C18.6986012,193.45014 14.1517609,191.983121 10.4413941,190.769496 L24.2145775,169.18466 L46.2952402,134.563006 C47.238542,133.083352 49.3897728,133.083352 50.3330746,134.563006 L65.7729207,158.765313 C66.8167669,160.396583 69.2507787,160.188112 69.9992757,158.39891 L83.722187,125.686487 L115.601737,49.5264288 C116.425643,47.5603423 119.192708,47.5603423 120.016613,49.5264288 L151.896163,125.591727 L165.631643,158.379958 C166.386424,160.16916 168.820436,160.377631 169.864282,158.746362 L185.285276,134.563006 C186.228578,133.083352 188.37911,133.083352 189.322412,134.563006 L211.403773,169.165708 L225.18324,190.769496 Z" id="Fill-6" stroke="none" fill="#AFB5BF" fill-rule="evenodd"></path>
                            <path d="M211.793731,195.068705 C183.486299,203.995763 137.487944,217.488128 117.809175,217.488128 C98.1304059,217.488128 52.1383349,204.00208 23.830903,195.075022 L24.2142284,194.474176 L46.2955893,159.852522 C47.2388911,158.37357 49.3901219,158.37357 50.3334237,159.852522 L65.7732698,184.05483 C66.817116,185.686099 69.2511278,185.477628 69.9989266,183.688426 L83.7218379,150.976003 L115.601388,74.8159452 C116.425293,72.8498587 119.193057,72.8498587 120.016264,74.8159452 L151.895814,150.881243 L165.631293,183.669474 C166.386075,185.458676 168.820086,185.667147 169.863933,184.035878 L185.284927,159.852522 C186.228228,158.37357 188.379459,158.37357 189.322761,159.852522 L211.404122,194.455224 L211.793731,195.068705 Z" id="Fill-8" stroke="none" fill="#808285" fill-rule="evenodd"></path>
                            <g id="Group-13" stroke="none" stroke-width="1" fill="none" fill-rule="evenodd" transform="translate(117.301775, 1.997673)">
                                <path d="M0.507330178,25.4486423 L0.507330178,0.606882692" id="Fill-10" fill="#AFB5BF"></path>
                                <path d="M0.507330178,25.4486423 L0.507330178,0.606882692" id="Stroke-12" stroke="#44515C" stroke-width="1.4" stroke-linecap="round"></path>
                            </g>
                            <path d="M185.536148,89.0969913 C185.069036,95.0921163 182.465355,100.025232 178.669805,103.727174 C174.868669,107.429116 169.92384,109.221126 164.622917,108.928424 C133.437402,107.201693 102.180669,107.201693 70.9958521,108.928424 C60.4331065,109.508213 51.0343018,100.743299 50.0553905,88.7551548 C49.8089172,85.578251 50.2117929,82.6807125 51.1362426,79.8645971 C51.957355,77.3671548 53.2372012,75.6207702 54.8186805,73.6378375 C58.1785385,69.4220875 63.1261598,67.1843567 68.6917101,66.8769144 C101.411923,65.065251 134.206148,65.065251 166.926361,66.8769144 C175.124219,67.328251 181.890018,72.6860298 184.433651,80.5026452 C185.357402,83.3187606 185.782621,85.9200875 185.536148,89.0969913" id="Fill-14" stroke="none" fill="#E1C29B" fill-rule="evenodd"></path>
                            <path d="M185.536148,89.0969913 C185.069036,95.0921163 182.465355,100.025232 178.669805,103.727174 C174.868669,107.429116 169.92384,109.221126 164.622917,108.928424 C133.437402,107.201693 102.180669,107.201693 70.9958521,108.928424 C60.4331065,109.508213 51.0343018,100.743299 50.0553905,88.7551548 C49.8089172,85.578251 50.2117929,82.6807125 51.1362426,79.8645971 C51.957355,77.3671548 53.2372012,75.6207702 54.8186805,73.6378375 C58.1785385,69.4220875 63.1261598,67.1843567 68.6917101,66.8769144 C101.411923,65.065251 134.206148,65.065251 166.926361,66.8769144 C175.124219,67.328251 181.890018,72.6860298 184.433651,80.5026452 C185.357402,83.3187606 185.782621,85.9200875 185.536148,89.0969913 L185.536148,89.0969913 Z" id="Stroke-16" stroke="#978466" stroke-width="1.4" fill="none"></path>
                            <path d="M183.413125,81.7889192 C183.795753,81.1754385 184.151847,80.5423038 184.479315,79.8951308 C181.934983,72.0785154 175.19083,66.3087077 166.982498,65.8573712 C134.225279,64.0436019 101.39335,64.0436019 68.6361314,65.8573712 C63.0622024,66.1648135 58.1460012,68.95215 54.785445,73.1671981 C53.2025692,75.1508327 51.9632201,77.4454192 51.1421077,79.9428615 C51.3299302,80.3134769 51.5268296,80.6770731 51.7328059,81.03365 C52.8122615,82.9028712 53.1900012,85.1209481 52.8792911,87.2863808 C52.7626876,88.0949962 52.7927112,88.95415 52.9965929,89.8287462 C53.5796107,92.3268904 55.4299065,94.1392558 57.7284627,94.4593327 C60.114297,94.7913423 62.185232,93.4899769 63.2444391,91.4642269 C63.4238828,91.1209865 63.7855633,90.9595442 64.1360722,91.0599192 C64.1402615,91.0613231 64.1451491,91.0627269 64.1493385,91.0634288 C64.4942615,91.1616981 64.7519065,91.4880923 64.7665692,91.8804673 C64.7979893,92.7480442 65.1031136,93.6752846 66.0087112,94.6621885 C66.7404509,95.4581692 67.715871,95.9670635 68.7289953,95.9158231 C70.389374,95.8322942 71.734155,94.5569 72.1412201,92.8652654 C72.3164746,92.1352654 72.8548059,91.5891692 73.5362734,91.5540731 C73.6298355,91.5491596 73.7233976,91.5442462 73.8169598,91.5400346 C74.4753858,91.5063423 75.1100722,91.9331115 75.3258237,92.6259096 C75.8955751,94.4459962 77.481942,95.7206885 79.2875515,95.6399673 C81.2279183,95.5522269 82.7779775,93.9293808 83.0384154,91.8594096 C83.0914805,91.4340442 83.3931136,91.1041404 83.7799302,91.0894 C84.1716343,91.0739577 84.5137645,91.3849096 84.5780012,91.8144865 C85.0716462,95.0756212 87.6599657,97.5134 90.6832793,97.4179385 C93.4482497,97.3301981 95.7153858,95.1514288 96.3053858,92.2679288 C96.4925101,91.3498135 97.1774686,90.6647365 98.0265101,90.6450827 C98.0711964,90.6443808 98.1165811,90.6429769 98.1619657,90.642275 C99.0522024,90.6219192 99.8139657,91.3315635 99.9717645,92.3044288 C100.855019,97.6825635 105.079978,101.720025 110.079267,101.675804 C114.857918,101.631583 118.858049,97.8741885 119.893516,92.8357846 C120.178392,91.4340442 121.278794,90.4246788 122.573303,90.4316981 C122.662676,90.4324 122.752747,90.4331019 122.842818,90.4331019 C123.941824,90.4401212 124.887918,91.1981981 125.345256,92.3058327 C125.959693,93.7904 127.296096,94.8271404 128.858025,94.8467942 C130.85006,94.8720635 132.521611,93.2351788 132.798806,91.0872942 C132.838605,90.7798519 133.079492,90.5538327 133.358782,90.5587462 L133.358782,90.5587462 C133.645753,90.5636596 133.888735,90.8093327 133.903398,91.1273038 C134.092617,95.1486212 137.02167,98.37115 140.666404,98.4687173 C143.905469,98.5550538 146.706747,96.1481596 147.576037,92.8013904 C147.856723,91.7176212 148.753942,90.9728808 149.767764,91.0100827 C150.56025,91.0395635 151.291291,91.5330154 151.627836,92.3261885 C151.998593,93.1993808 152.781303,93.8156692 153.709942,93.854275 C154.864806,93.9027077 155.869551,93.0407462 156.159315,91.8432654 C156.237516,91.5189769 156.493066,91.2852365 156.794699,91.299275 C157.108901,91.3133135 157.36096,91.5863615 157.38051,91.9345154 C157.532723,94.6263904 159.472392,96.8002462 161.940617,96.9279962 C166.160688,97.1498038 166.066427,93.6886212 166.77722,92.3563712 C166.957362,92.0187462 167.265978,91.7962365 167.61509,91.7464 C168.478794,91.6242654 170.16012,91.3694673 171.430889,91.0571115 C171.902191,90.9405923 172.367907,91.1834577 172.628344,91.6291788 C173.742711,93.5377077 175.752202,94.7506308 178.057741,94.4986404 C180.475693,94.2333135 182.564084,92.2384481 183.158273,89.6132558 C183.45851,88.2796019 183.373327,86.9796404 182.991398,85.8298904 C182.542439,84.4814962 182.666025,82.9878038 183.413125,81.7889192" id="Fill-18" stroke="none" fill="#FFFFF9" fill-rule="evenodd"></path>
                            <path d="M183.413125,81.7889192 C183.795753,81.1754385 184.151847,80.5423038 184.479315,79.8951308 C181.934983,72.0785154 175.19083,66.3087077 166.982498,65.8573712 C134.225279,64.0436019 101.39335,64.0436019 68.6361314,65.8573712 C63.0622024,66.1648135 58.1460012,68.95215 54.785445,73.1671981 C53.2025692,75.1508327 51.9632201,77.4454192 51.1421077,79.9428615 C51.3299302,80.3134769 51.5268296,80.6770731 51.7328059,81.03365 C52.8122615,82.9028712 53.1900012,85.1209481 52.8792911,87.2863808 C52.7626876,88.0949962 52.7927112,88.95415 52.9965929,89.8287462 C53.5796107,92.3268904 55.4299065,94.1392558 57.7284627,94.4593327 C60.114297,94.7913423 62.185232,93.4899769 63.2444391,91.4642269 C63.4238828,91.1209865 63.7855633,90.9595442 64.1360722,91.0599192 C64.1402615,91.0613231 64.1451491,91.0627269 64.1493385,91.0634288 C64.4942615,91.1616981 64.7519065,91.4880923 64.7665692,91.8804673 C64.7979893,92.7480442 65.1031136,93.6752846 66.0087112,94.6621885 C66.7404509,95.4581692 67.715871,95.9670635 68.7289953,95.9158231 C70.389374,95.8322942 71.734155,94.5569 72.1412201,92.8652654 C72.3164746,92.1352654 72.8548059,91.5891692 73.5362734,91.5540731 C73.6298355,91.5491596 73.7233976,91.5442462 73.8169598,91.5400346 C74.4753858,91.5063423 75.1100722,91.9331115 75.3258237,92.6259096 C75.8955751,94.4459962 77.481942,95.7206885 79.2875515,95.6399673 C81.2279183,95.5522269 82.7779775,93.9293808 83.0384154,91.8594096 C83.0914805,91.4340442 83.3931136,91.1041404 83.7799302,91.0894 C84.1716343,91.0739577 84.5137645,91.3849096 84.5780012,91.8144865 C85.0716462,95.0756212 87.6599657,97.5134 90.6832793,97.4179385 C93.4482497,97.3301981 95.7153858,95.1514288 96.3053858,92.2679288 C96.4925101,91.3498135 97.1774686,90.6647365 98.0265101,90.6450827 C98.0711964,90.6443808 98.1165811,90.6429769 98.1619657,90.642275 C99.0522024,90.6219192 99.8139657,91.3315635 99.9717645,92.3044288 C100.855019,97.6825635 105.079978,101.720025 110.079267,101.675804 C114.857918,101.631583 118.858049,97.8741885 119.893516,92.8357846 C120.178392,91.4340442 121.278794,90.4246788 122.573303,90.4316981 C122.662676,90.4324 122.752747,90.4331019 122.842818,90.4331019 C123.941824,90.4401212 124.887918,91.1981981 125.345256,92.3058327 C125.959693,93.7904 127.296096,94.8271404 128.858025,94.8467942 C130.85006,94.8720635 132.521611,93.2351788 132.798806,91.0872942 C132.838605,90.7798519 133.079492,90.5538327 133.358782,90.5587462 L133.358782,90.5587462 C133.645753,90.5636596 133.888735,90.8093327 133.903398,91.1273038 C134.092617,95.1486212 137.02167,98.37115 140.666404,98.4687173 C143.905469,98.5550538 146.706747,96.1481596 147.576037,92.8013904 C147.856723,91.7176212 148.753942,90.9728808 149.767764,91.0100827 C150.56025,91.0395635 151.291291,91.5330154 151.627836,92.3261885 C151.998593,93.1993808 152.781303,93.8156692 153.709942,93.854275 C154.864806,93.9027077 155.869551,93.0407462 156.159315,91.8432654 C156.237516,91.5189769 156.493066,91.2852365 156.794699,91.299275 C157.108901,91.3133135 157.36096,91.5863615 157.38051,91.9345154 C157.532723,94.6263904 159.472392,96.8002462 161.940617,96.9279962 C166.160688,97.1498038 166.066427,93.6886212 166.77722,92.3563712 C166.957362,92.0187462 167.265978,91.7962365 167.61509,91.7464 C168.478794,91.6242654 170.16012,91.3694673 171.430889,91.0571115 C171.902191,90.9405923 172.367907,91.1834577 172.628344,91.6291788 C173.742711,93.5377077 175.752202,94.7506308 178.057741,94.4986404 C180.475693,94.2333135 182.564084,92.2384481 183.158273,89.6132558 C183.45851,88.2796019 183.373327,86.9796404 182.991398,85.8298904 C182.542439,84.4814962 182.666025,82.9878038 183.413125,81.7889192 L183.413125,81.7889192 Z" id="Stroke-20" stroke="#E1C29B" stroke-width="1.4" fill="none"></path>
                            <path d="M60.3443621,84.2048683 C59.7054864,84.2469837 59.0938414,84.0202625 58.6197467,83.5661183 C57.8272615,82.8059356 57.7392852,81.5361567 58.424942,80.6748971 C60.1865633,78.4638394 61.9614509,76.2583971 63.750303,74.0585702 C64.1657467,73.5461663 64.7522556,73.2429356 65.3995101,73.2043298 C66.0460663,73.165724 66.6639953,73.3973587 67.1373917,73.8564163 C67.9298769,74.6250221 67.9996994,75.8962048 67.3021728,76.7497433 C65.5119243,78.942551 63.734942,81.140974 61.971226,83.3443106 C61.5606698,83.8574163 60.9832379,84.1627529 60.3443621,84.2048683" id="Fill-22" stroke="none" fill="#DB386C" fill-rule="evenodd"></path>
                            <path d="M65.3581751,72.5038106 C64.5119266,72.554349 63.7159503,72.9642721 63.1776189,73.6275894 C61.3887669,75.8288202 59.6145775,78.0349644 57.8536544,80.247426 C56.9473586,81.3859452 57.0660568,83.0635413 58.1126959,84.0672913 C58.7257373,84.654801 59.5552284,84.9601375 60.3903053,84.9053875 C61.224684,84.8499356 62.0073941,84.4386087 62.5387432,83.7745894 C64.3024592,81.5726567 66.0801396,79.3749356 67.8710864,77.1835317 C68.792045,76.0562433 68.701974,74.3765413 67.6553349,73.3608587 C67.0429917,72.7663298 66.2044237,72.4532721 65.3581751,72.5038106 M65.4405657,73.905551 C65.8574059,73.8802817 66.2840213,74.0276856 66.6198675,74.3533779 L66.6198675,74.3533779 C67.1477254,74.8643779 67.1972994,75.748099 66.7329799,76.3166567 C64.9427314,78.5101663 63.1657491,80.7099933 61.4027314,82.9147337 C61.1122698,83.2783298 60.7107905,83.476974 60.2988379,83.504349 C59.886187,83.531724 59.4630627,83.3871279 59.1272166,83.0649452 C58.6000568,82.5588587 58.5393112,81.6758394 58.9966485,81.1030702 C60.7575716,78.8934163 62.5331574,76.688676 64.3220095,74.489551 C64.6173586,74.1273587 65.0237254,73.9301183 65.4405657,73.905551" id="Fill-24" stroke="none" fill="#FFFFF9" fill-rule="evenodd"></path>
                            <path d="M74.0380178,84.3651875 C72.8021598,84.4276587 71.7457456,83.4997163 71.6822071,82.2945144 C71.678716,82.2327452 71.6752249,82.170976 71.672432,82.1092067 C71.6088935,80.9033029 72.5682544,79.8686683 73.8110947,79.8061971 C76.4420059,79.6735337 79.0729172,79.5528029 81.7052249,79.4447067 C82.9487633,79.3927644 83.997497,80.336149 84.0428817,81.5427548 C84.0449763,81.6038221 84.0477692,81.6662933 84.0498639,81.7280625 C84.0952485,82.9346683 83.1275089,83.9545625 81.8916509,84.0058029 C79.2733077,84.113899 76.6556627,84.233226 74.0380178,84.3651875" id="Fill-26" stroke="none" fill="#F79151" fill-rule="evenodd"></path>
                            <path d="M81.6763183,78.7429942 C79.0426142,78.8517923 76.4089101,78.9725231 73.7759041,79.1051865 C72.1329811,79.1873115 70.8664012,80.5553596 70.9515846,82.1473212 C70.9550757,82.2090904 70.9585669,82.2708596 70.9613598,82.3326288 C71.0472414,83.9245904 72.4429929,85.1480423 74.0733479,85.0659173 C76.6882,84.9346577 79.3037503,84.8146288 81.9199988,84.7065327 C83.5503538,84.6391481 84.8295018,83.2935615 84.7708509,81.7001962 C84.768058,81.6384269 84.7659633,81.5766577 84.7638686,81.5148885 C84.7052178,79.9215231 83.3199396,78.6749077 81.6763183,78.7429942 M81.7335728,80.1454365 C82.575632,80.1110423 83.2906142,80.7526 83.3220343,81.5703404 C83.3248272,81.6321096 83.3269219,81.6938788 83.3297148,81.7556481 C83.3611349,82.5733885 82.7013124,83.2696962 81.8627444,83.3040904 C79.2423065,83.4121865 76.6225669,83.5322154 74.0035254,83.6641769 C73.1649574,83.7062923 72.4443893,83.0738596 72.4017976,82.2561192 C72.3990047,82.19435 72.3955136,82.1325808 72.3927207,82.0715135 C72.350129,81.2537731 73.0043657,80.5490423 73.8457266,80.5069269 C76.4745432,80.3749654 79.104058,80.2542346 81.7335728,80.1454365" id="Fill-28" stroke="none" fill="#FFFFF9" fill-rule="evenodd"></path>
                            <path d="M94.9303018,80.5726269 C94.2886331,80.5894731 93.6846686,80.3388865 93.2287278,79.8657904 C91.2688107,77.8337231 89.2956272,75.8079731 87.3084793,73.7899442 C86.5355444,73.0037904 86.4894615,71.7319058 87.2093314,70.8938096 C87.6394379,70.3933385 88.2350237,70.10555 88.8836746,70.0837904 C89.5330237,70.0627327 90.1453669,70.3112135 90.6075917,70.7829058 C92.592645,72.8086558 94.564432,74.841425 96.5229527,76.8805115 C97.2861124,77.6750885 97.3140414,78.947675 96.5920769,79.77805 C96.1619704,80.2736077 95.5719704,80.5557808 94.9303018,80.5726269" id="Fill-30" stroke="none" fill="#4DBDE6" fill-rule="evenodd"></path>
                            <path d="M88.861471,69.3824288 C88.0124296,69.4105058 87.2045834,69.7986692 86.6474,70.4472462 C85.6950213,71.5555827 85.7585598,73.2359865 86.7807609,74.2741308 C88.7679089,76.2914577 90.7417905,78.3158038 92.7017077,80.3464673 C93.2924059,80.9585442 94.1107254,81.2961692 94.9485953,81.2744096 C95.7864651,81.25265 96.5859325,80.8722077 97.1445124,80.2299481 C98.0975893,79.1342462 98.0626781,77.4524385 97.0544414,76.4023615 C95.0966189,74.3618712 93.124832,72.3276981 91.1397787,70.3005442 C90.5420982,69.6898712 89.7105124,69.3543519 88.861471,69.3824288 L88.861471,69.3824288 M88.9068556,70.7855731 C89.3250923,70.7715346 89.7482166,70.9308712 90.0763822,71.2649865 C92.0614355,73.2900346 94.0339207,75.3214 95.9924414,77.3597846 C96.5000509,77.8883327 96.5209976,78.7727558 96.0406189,79.3258712 C95.7354947,79.6775346 95.3263349,79.8600346 94.9122876,79.8712654 C94.4982402,79.8817942 94.0800036,79.7210538 93.7567254,79.3855346 C91.7968083,77.3520635 89.8236249,75.3256115 87.8371751,73.3054769 C87.3225834,72.7825442 87.2911633,71.8974192 87.7708438,71.3400923 C88.0766663,70.9849192 88.4886189,70.7996115 88.9068556,70.7855731" id="Fill-32" stroke="none" fill="#FFFFF9" fill-rule="evenodd"></path>
                            <path d="M104.472941,90.4319087 C103.295036,90.4501587 102.319615,89.5243221 102.298669,88.3654471 C102.244207,85.2952356 102.189746,82.225726 102.135284,79.1555144 C102.114337,77.9966394 103.070905,77.0350048 104.267663,77.0167548 C105.465118,76.9985048 106.450314,77.9292548 106.464976,79.0888317 C106.504077,82.1590433 106.543876,85.2292548 106.582976,88.2987644 C106.597639,89.4583413 105.650846,90.4136587 104.472941,90.4319087" id="Fill-34" stroke="none" fill="#00AD65" fill-rule="evenodd"></path>
                            <path d="M104.257259,76.3151125 C102.659022,76.3396798 101.382667,77.6227952 101.412691,79.1684298 C101.469247,82.2386413 101.526502,85.308151 101.583756,88.3783625 C101.613082,89.924699 102.913875,91.1579779 104.483484,91.1334106 C106.053093,91.1095452 107.316182,89.8362567 107.298028,88.2899202 C107.261721,85.2197087 107.224715,82.1494971 107.187709,79.0792856 C107.170253,77.533651 105.855496,76.2905452 104.257259,76.3151125 L104.257259,76.3151125 M104.278904,77.7189587 C105.073484,77.706324 105.73191,78.3282279 105.742383,79.0982375 C105.784277,82.168449 105.82617,85.2386606 105.868064,88.3088721 C105.878537,89.0788817 105.245946,89.7176317 104.462537,89.7302663 C103.678431,89.742199 103.026987,89.1231029 103.013721,88.3523913 C102.962052,85.2828817 102.909685,82.2126702 102.858017,79.1431606 C102.84475,78.372449 103.484324,77.7308913 104.278904,77.7189587" id="Fill-36" stroke="none" fill="#FFFFF9" fill-rule="evenodd"></path>
                            <path d="M113.529964,79.3109202 C112.887598,79.3144298 112.288521,79.0505067 111.842355,78.5675837 C111.095254,77.7603721 111.084083,76.4877856 111.822805,75.6700452 C113.719882,73.5705933 115.630225,71.4774587 117.553834,69.3906413 C118.001396,68.9049106 118.606757,68.6381798 119.256805,68.6388817 C119.906154,68.6402856 120.510817,68.9091221 120.956982,69.3962567 C121.703385,70.2118913 121.696402,71.4844779 120.946509,72.2937952 C119.021503,74.3735933 117.109065,76.4597087 115.210592,78.5514394 C114.768615,79.038574 114.172331,79.3081125 113.529964,79.3109202" id="Fill-38" stroke="none" fill="#FFEB84" fill-rule="evenodd"></path>
                            <path d="M119.257643,67.9373096 C118.407205,67.9359058 117.586092,68.2966942 117.006566,68.9256173 C115.082956,71.0138385 113.172613,73.1083769 111.276234,75.2085308 C110.300116,76.2894923 110.316873,77.9713 111.304163,79.0375212 C111.882992,79.6615308 112.694329,80.0167038 113.533595,80.0124923 C114.372163,80.0082808 115.180708,79.6453865 115.752554,79.0157615 C117.651725,76.9247327 119.564163,74.8400212 121.489867,72.7616269 C122.480649,71.6925981 122.492518,70.0107904 121.505927,68.9333385 C120.927796,68.3023096 120.10808,67.9387135 119.257643,67.9373096 L119.257643,67.9373096 M119.255548,69.3411558 C119.673785,69.3418577 120.09272,69.5152327 120.409015,69.8605788 C120.906151,70.4024635 120.901962,71.2875885 120.40343,71.8266654 C118.477725,73.9078673 116.565986,75.9946846 114.667512,78.0878192 C114.354708,78.4331654 113.94066,78.6065404 113.526613,78.6086462 C113.111867,78.6107519 112.697122,78.4408865 112.380128,78.09905 C111.88369,77.5613769 111.876708,76.6762519 112.368258,76.1322615 C114.265335,74.0342135 116.176376,71.9417808 118.099986,69.8563673 C118.417678,69.512425 118.836613,69.3404538 119.255548,69.3411558" id="Fill-40" stroke="none" fill="#FFFFF9" fill-rule="evenodd"></path>
                            <path d="M127.251759,87.1809519 C126.02009,87.1676154 125.025818,86.1772019 125.035593,84.9698942 C125.036291,84.908125 125.036291,84.8463558 125.036989,84.7845865 C125.046764,83.5772788 126.061983,82.6030096 127.300634,82.6163462 C129.922469,82.645125 132.544303,82.6851346 135.165439,82.7377788 C136.40409,82.7623462 137.389983,83.7675 137.362054,84.9741058 C137.361356,85.035875 137.35996,85.0976442 137.358563,85.1594135 C137.330634,86.3667212 136.307037,87.3255481 135.075368,87.3016827 C132.467498,87.2497404 129.859628,87.2090288 127.251759,87.1809519" id="Fill-42" stroke="none" fill="#DB386C" fill-rule="evenodd"></path>
                            <path d="M135.179473,82.0356452 C132.556243,81.9837029 129.932314,81.9429913 127.308385,81.9142125 C125.671047,81.8966644 124.329757,83.1846933 124.319284,84.7787606 C124.318586,84.8405298 124.317888,84.902299 124.317888,84.9640683 C124.306716,86.5588375 125.619379,87.8651163 127.244148,87.8826644 C129.849923,87.9114433 132.456396,87.9514529 135.062172,88.0033952 C136.686243,88.0356837 138.038006,86.7701163 138.07571,85.176049 C138.077107,85.1142798 138.078503,85.0525106 138.079899,84.9907413 C138.118302,83.396674 136.816811,82.0679337 135.179473,82.0356452 M135.151544,83.4394913 C135.990811,83.4556356 136.662503,84.1407125 136.644349,84.9584529 C136.642953,85.0202221 136.641556,85.0819913 136.64016,85.1437606 C136.622704,85.9622029 135.924479,86.6163952 135.089402,86.599549 C132.479438,86.5476067 129.869473,86.5075971 127.259509,86.4795202 C126.423734,86.4703952 125.746456,85.7944433 125.753438,84.976001 C125.754136,84.9142317 125.754834,84.8524625 125.754834,84.7906933 C125.762515,83.972251 126.454456,83.3089337 127.293024,83.3180587 C129.912763,83.3468375 132.532503,83.3868471 135.151544,83.4394913" id="Fill-44" stroke="none" fill="#FFFFF9" fill-rule="evenodd"></path>
                            <path d="M145.748503,83.3935154 C145.108929,83.3731596 144.521722,83.0874769 144.095805,82.5884096 C142.261568,80.4461404 140.414065,78.3094865 138.552598,76.1784481 C137.828538,75.3494769 137.855769,74.0768904 138.620325,73.2823135 C139.077663,72.8071115 139.686515,72.5544192 140.333769,72.5712654 C140.981024,72.5874096 141.575911,72.8709865 142.009509,73.36865 C143.868183,75.5067077 145.713592,77.6503808 147.545734,79.8003712 C148.260018,80.6377654 148.214633,81.90965 147.447982,82.6965058 C146.991343,83.1667942 146.387379,83.4138712 145.748503,83.3935154" id="Fill-46" stroke="none" fill="#9E479B" fill-rule="evenodd"></path>
                            <path d="M140.351574,71.8692721 C139.504627,71.8475125 138.678627,72.1886471 138.086533,72.8035317 C137.075503,73.8550125 137.041988,75.5361183 137.999254,76.6318202 C139.860722,78.7614548 141.708923,80.8967048 143.54316,83.0382721 C144.096154,83.6833394 144.890734,84.0679933 145.725811,84.0953683 C146.561586,84.1220413 147.379207,83.7886279 147.971302,83.1800606 C148.98303,82.1412144 149.045172,80.4608106 148.102568,79.3538779 C146.271124,77.2024837 144.425716,75.0574067 142.566343,72.9179452 C142.006367,72.2735798 141.198521,71.8910317 140.351574,71.8692721 M140.315964,73.2724163 C140.732805,73.2836471 141.145456,73.4661471 141.451976,73.8192144 C143.312047,75.9558683 145.158154,78.0988394 146.990296,80.247426 C147.465787,80.8047529 147.435065,81.689176 146.925361,82.2128106 C146.601385,82.546926 146.183148,82.7055606 145.770497,82.692224 C145.358544,82.6788875 144.950781,82.4935798 144.64845,82.1398106 C142.814911,79.9961375 140.967408,77.8580798 139.106639,75.7263394 C138.624166,75.173926 138.644414,74.288801 139.15342,73.7602529 L139.15342,73.7602529 C139.478095,73.4233298 139.899124,73.2618875 140.315964,73.2724163" id="Fill-48" stroke="none" fill="#FFFFF9" fill-rule="evenodd"></path>
                            <path d="M154.94196,81.4672279 C153.751486,81.4166894 152.820054,80.435401 152.865439,79.2772279 C152.98693,76.2091221 153.108421,73.1410163 153.230611,70.0729106 C153.275995,68.9147375 154.2968,68.0113625 155.506125,68.0626029 C156.715451,68.1145452 157.656658,69.1007471 157.604291,70.2596221 C157.468137,73.326324 157.331285,76.3937279 157.194433,79.4611317 C157.142764,80.6193048 156.131735,81.5177663 154.94196,81.4672279" id="Fill-50" stroke="none" fill="#4DBDE6" fill-rule="evenodd"></path>
                            <path d="M155.5358,67.3613817 C153.921504,67.2925933 152.559267,68.499199 152.500617,70.0441317 C152.38122,73.1122375 152.261824,76.1803433 152.143125,79.248449 C152.083776,80.7933817 153.326617,82.1010644 154.912285,82.168449 C156.498652,82.2358337 157.846226,81.0390548 157.917445,79.4941221 C158.056392,76.4267183 158.196037,73.3593144 158.334983,70.2926125 C158.406202,68.7476798 157.150794,67.4301702 155.5358,67.3613817 L155.5358,67.3613817 M155.476451,68.763824 C156.280108,68.7982183 156.90851,69.457324 156.874995,70.2266317 C156.740936,73.2940356 156.606179,76.3614394 156.47212,79.4288433 C156.438605,80.1988529 155.763421,80.799699 154.971634,80.7660067 C154.179847,80.7323144 153.557031,80.0760163 153.588451,79.3060067 C153.712735,76.2386029 153.836321,73.1704971 153.960605,70.1023913 C153.992025,69.3330837 154.674191,68.7301317 155.476451,68.763824" id="Fill-52" stroke="none" fill="#FFFFF9" fill-rule="evenodd"></path>
                            <path d="M166.937114,86.3707923 C166.298936,86.3349942 165.720806,86.0345712 165.307457,85.5256769 C164.614818,84.6749462 164.680451,83.4037635 165.464557,82.63235 C167.47335,80.6529269 169.496108,78.6805231 171.532131,76.7151385 C172.005528,76.2574846 172.62206,76.0279558 173.266522,76.0686673 C173.91238,76.1093788 174.495398,76.4147154 174.908747,76.9285231 C175.599291,77.7876769 175.515504,79.0574558 174.721622,79.8197442 C172.684901,81.7781096 170.660747,83.7434942 168.649859,85.7151962 C168.182049,86.1742538 167.574593,86.4065904 166.937114,86.3707923" id="Fill-54" stroke="none" fill="#00AD65" fill-rule="evenodd"></path>
                            <path d="M173.31051,75.3681481 C172.467054,75.3148019 171.629883,75.62435 171.016841,76.217475 C168.980818,78.1842635 166.958759,80.1580712 164.949966,82.1381962 C163.915895,83.1580904 163.830711,84.8377923 164.745386,85.9615712 C165.280924,86.6206769 166.065031,87.0242827 166.897315,87.0713115 C167.729599,87.1183404 168.553504,86.8052827 169.159563,86.2114558 C171.170451,84.2404558 173.194605,82.276475 175.232025,80.3202154 C176.28006,79.3136577 176.393871,77.6353596 175.480593,76.4989462 C174.945753,75.834225 174.154664,75.4214942 173.31051,75.3681481 M173.223232,76.7691865 C173.638676,76.7958596 174.042948,76.9938019 174.336202,77.3581 L174.336202,77.3581 C174.796333,77.9294654 174.739078,78.8124846 174.210522,79.3206769 C172.1738,81.2797442 170.150344,83.2458308 168.139457,85.2189365 C167.8078,85.5446288 167.38677,85.6934365 166.975516,85.6695712 C166.56496,85.6464077 166.162782,85.451975 165.869528,85.0904846 C165.408699,84.5240327 165.456179,83.6396096 165.977054,83.1272058 C167.986546,81.1484846 170.009303,79.1774846 172.045327,77.2128019 C172.381173,76.8885135 172.807788,76.7432154 173.223232,76.7691865" id="Fill-56" stroke="none" fill="#FFFFF9" fill-rule="evenodd"></path>
                            <path d="M96.0325121,16.696395 C95.1206305,16.5244239 94.3812104,15.5234816 94.3812104,14.6081739 L94.3812104,2.96467388 C94.3812104,2.0465585 95.1206305,1.56082773 96.0325121,1.7335008 C102.757814,3.02574119 109.483814,-0.921874197 116.209814,0.371068111 C117.121696,0.543039265 117.860417,1.54327965 117.860417,2.45858734 L117.860417,14.1027893 C117.860417,15.0202027 117.121696,15.5059335 116.209814,15.3339623 C109.483814,14.04102 102.757814,17.9893373 96.0325121,16.696395 Z" id="Fill-58" stroke="none" fill="#FFFFF9" fill-rule="evenodd"></path>
                            <path d="M96.0325121,16.696395 C95.1206305,16.5244239 94.3812104,15.5234816 94.3812104,14.6081739 L94.3812104,2.96467388 C94.3812104,2.0465585 95.1206305,1.56082773 96.0325121,1.7335008 C102.757814,3.02574119 109.483814,-0.921874197 116.209814,0.371068111 C117.121696,0.543039265 117.860417,1.54327965 117.860417,2.45858734 L117.860417,14.1027893 C117.860417,15.0202027 117.121696,15.5059335 116.209814,15.3339623 C109.483814,14.04102 102.757814,17.9893373 96.0325121,16.696395 Z" id="Stroke-60" stroke="#E1C29B" stroke-width="1.4" fill="none"></path>
                            <path d="M109.57989,8.18880657 C109.452813,8.96162388 109.32015,9.74005657 109.203546,10.5276143 C109.169333,10.7620566 109.054126,10.8392681 108.829298,10.8413739 C107.760316,10.9080566 107.955819,11.0435277 107.807795,10.1359412 C107.539677,8.52643157 107.279239,6.92815273 107.014612,5.33829696 C107.002043,5.2603835 106.979002,5.18668157 107.001345,5.10666234 L107.001345,8.1347585 C107.001345,9.69794119 106.993665,11.2632296 107.007629,12.8229027 C107.009724,13.1450854 106.887535,13.2623066 106.590789,13.3472393 C106.308008,13.4286623 106.13415,13.4525277 106.135546,13.0917393 C106.146718,10.0474989 106.144623,7.00606619 106.137641,3.96673926 C106.137641,3.68947965 106.226316,3.5448835 106.511191,3.46135465 C107.564115,3.1679508 107.361629,3.12022003 107.534789,4.07553734 C107.878316,5.99178734 108.198103,7.93471042 108.548612,10.0299508 C108.634493,9.48596042 108.700825,9.06129696 108.769949,8.63733542 C109.058316,6.86427773 109.350174,5.11859503 109.635748,3.40590273 C109.67415,3.17426811 109.794245,3.09284503 110.035132,3.16724888 C111.122268,3.59752773 110.932351,3.52101811 110.934446,4.44755657 C110.942825,7.33316234 110.932351,10.2075373 110.944221,13.094547 C110.945617,13.432172 110.809464,13.3998835 110.522493,13.2616046 C110.235523,13.1282393 110.068647,13.04822 110.073535,12.6867296 C110.107748,10.2152585 110.12241,7.73887388 110.143357,5.26319119 L110.143357,5.0687585 C110.128694,5.06244119 110.11473,5.05612388 110.100067,5.04980657 C109.926907,6.08233542 109.753049,7.12960465 109.57989,8.18880657 Z" id="Fill-62" stroke="none" fill="#000000" fill-rule="evenodd"></path>
                            <path d="M101.313187,5.07395273 C101.341814,4.08494311 101.805435,4.0175585 102.784346,4.08704888 C103.083187,4.10389503 103.389009,4.11091426 103.686453,4.12354888 C104.561329,4.1425008 104.994228,4.41835657 105.043802,5.29576042 C105.083601,5.99347196 105.062654,6.71083734 105.069636,7.41977965 C105.073128,7.73915465 104.835033,7.74406811 104.647909,7.78899119 C104.444725,7.83952965 104.210122,7.91674119 104.211518,7.58753926 C104.214311,7.02810657 104.194761,6.4721835 104.214311,5.91064503 C104.255506,4.7293085 103.389707,4.85846234 102.634926,4.91672196 C102.302571,4.94479888 102.176891,5.19047196 102.169909,5.51335657 C102.151755,6.32127003 102.148264,7.13479888 102.146169,7.94902965 C102.142678,9.30233734 102.139187,10.656347 102.147565,12.0131643 C102.153849,12.9495296 102.516926,13.4598277 103.456039,13.3264623 C103.932926,13.2443373 104.173116,12.9453181 104.192666,12.4420393 C104.216406,11.8229431 104.224784,11.2052508 104.205234,10.5931739 C104.194062,10.2281739 104.385376,10.1797412 104.664666,10.1151643 C104.934181,10.0526931 105.088488,10.053395 105.07592,10.3840008 C105.050784,11.0529335 105.08011,11.7099335 105.047293,12.38027 C105.004003,13.2604816 104.610903,13.867645 103.751388,14.0655873 C103.301033,14.1617508 102.825542,14.1175296 102.377281,13.9245008 C101.706287,13.6317989 101.336926,12.8765296 101.317376,12.0938854 C101.288051,10.892895 101.309696,9.72138542 101.309696,8.53794311 C101.305506,7.37977003 101.279672,6.2075585 101.313187,5.07395273 Z" id="Fill-64" stroke="none" fill="#000000" fill-rule="evenodd"></path>
                        </g>
                    </g>
                </g>
            </g>
        </g>
    </g>
</svg>
