<?xml version="1.0" encoding="UTF-8"?>
<svg width="254px" height="199px" viewBox="0 0 254 199" version="1.1" xmlns="http://www.w3.org/2000/svg" xmlns:xlink="http://www.w3.org/1999/xlink">
    <!-- Generator: Sketch 42 (36781) - http://www.bohemiancoding.com/sketch -->
    <title>tinysummit</title>
    <desc>Created with Sketch.</desc>
    <defs></defs>
    <g id="CreativeMornings" stroke="none" stroke-width="1" fill="none" fill-rule="evenodd">
        <g id="CreativeMornings-Showcase" transform="translate(-25.000000, -844.000000)">
            <g id="Title" transform="translate(0.000000, 765.000000)">
                <g id="tinysummit" transform="translate(25.000000, 80.000000)">
                    <path d="M126.794546,233.247289 C105.243622,233.247289 54.0318118,218.21452 25.4237467,209.252936 C20.4451964,207.687679 15.4598828,206.094659 11.0051136,204.64871 C7.65201302,203.559933 4.93541538,202.666251 3.03266982,202.029943 C2.04748047,201.701284 1.28548047,200.953173 0.942054438,199.976951 C0.599379882,199.00298 0.724125444,197.944968 1.28472899,197.073797 L25.4282556,159.503129 L49.1937882,122.491482 C49.8100012,121.533269 50.8583148,120.960742 51.9998118,120.960742 C53.1405574,120.960742 54.188871,121.533269 54.805084,122.491482 L71.4217941,148.364743 C71.7652201,148.898251 72.3258237,149.204399 72.9570663,149.204399 C73.546226,149.204399 74.2984568,148.910257 74.6456402,148.087109 L89.4152142,113.116448 L123.726256,31.7013295 C124.256049,30.4452221 125.432114,29.6648447 126.794546,29.6648447 C128.156978,29.6648447 129.333043,30.4452221 129.862836,31.7005791 L164.173877,113.015149 L178.956978,148.066099 C179.306415,148.889997 180.062404,149.184139 180.651563,149.184139 C181.284309,149.184139 181.844161,148.877991 182.188338,148.343733 L198.784759,122.491482 C199.40022,121.533269 200.449285,120.960742 201.590031,120.960742 C202.730776,120.960742 203.77909,121.533269 204.395303,122.491482 L228.160836,159.482119 L252.305114,197.074547 C252.864966,197.944968 252.990463,199.00298 252.647037,199.976951 C252.303611,200.953173 251.541611,201.701284 250.556421,202.029943 C248.652924,202.666251 245.943841,203.559933 242.590741,204.64871 C238.54177,205.956592 233.66467,207.526351 228.172859,209.246933 C199.555776,218.210017 148.333445,233.247289 126.794546,233.247289" id="Fill-1" fill="#F8F9F9"></path>
                    <g id="Group-5" transform="translate(0.000000, 28.398232)" fill="#44515C">
                        <path d="M126.794546,0.516624819 C125.124007,0.516624819 123.68267,1.47258708 123.033392,3.01158128 L88.7223503,84.4274507 L73.9535278,119.39586 C73.6957704,120.008156 73.1253976,120.055429 72.9570663,120.055429 C72.7391373,120.055429 72.3318355,119.990898 72.0537882,119.559439 L55.4370781,93.6884289 C54.6825929,92.5133607 53.3975633,91.8117714 51.9990604,91.8117714 C50.6013089,91.8117714 49.3155278,92.5133607 48.5610426,93.6891792 L24.7962615,130.700076 L0.651983432,168.271494 C-0.0341171598,169.337009 -0.187418935,170.634387 0.233409467,171.828214 C0.65423787,173.023542 1.58757515,173.940485 2.79369941,174.34343 C4.79263432,175.011253 7.55131479,175.916941 10.7729065,176.963697 C15.2066343,178.404394 20.1942024,179.997414 25.1968,181.570175 C88.5998592,201.430779 115.441196,205.599795 126.794546,205.599795 C138.141131,205.599795 164.978711,201.429278 228.397551,181.564172 C233.89838,179.840589 238.77548,178.27158 242.821445,176.963697 C246.690812,175.70759 249.293185,174.845423 250.795392,174.344181 C252.001516,173.940485 252.934853,173.023542 253.355682,171.828214 C253.77651,170.634387 253.623208,169.337009 252.936356,168.269993 L228.79283,130.679066 L205.027297,93.6884289 C204.273563,92.5133607 202.987782,91.8117714 201.590031,91.8117714 C200.191528,91.8117714 198.906498,92.5133607 198.152013,93.6891792 L181.554841,119.54143 C181.277546,119.970638 180.870244,120.035169 180.651563,120.035169 C180.48248,120.035169 179.909102,119.987146 179.648338,119.373349 L164.866741,84.3261517 L130.555699,3.01083091 C129.906421,1.47258708 128.465084,0.516624819 126.794546,0.516624819 M126.794546,2.01735051 C127.760948,2.01735051 128.72735,2.5426045 129.170723,3.59386284 L163.481764,84.9084332 L178.264114,119.959382 C178.70448,120.995634 179.675392,121.535895 180.651563,121.535895 C181.476688,121.535895 182.304818,121.150208 182.819581,120.351072 L199.416753,94.4988208 C199.924753,93.7079383 200.757392,93.3124971 201.590031,93.3124971 C202.42267,93.3124971 203.254557,93.7079383 203.762557,94.4988208 L227.52809,131.489458 L251.672368,169.081886 C252.586167,170.500822 251.915847,172.386484 250.318202,172.920742 C248.416208,173.5563 245.708628,174.448481 242.358534,175.536507 C238.364421,176.827131 233.470788,178.402143 227.947415,180.13248 C197.480942,189.675594 147.974238,204.099069 126.794546,204.099069 C105.614853,204.099069 56.1149124,189.682348 25.6484391,180.139233 C20.1250663,178.402143 15.2314331,176.833885 11.2373207,175.536507 C7.88722604,174.448481 5.17288284,173.5563 3.27088876,172.920742 C1.67324379,172.386484 1.00292426,170.500822 1.91672308,169.081886 L26.0610012,131.509718 L49.8265337,94.4988208 C50.3345337,93.7079383 51.1664213,93.3124971 51.9990604,93.3124971 C52.8316994,93.3124971 53.6643385,93.7079383 54.1723385,94.4988208 L70.7898,120.371332 C71.3045633,121.170468 72.1326935,121.556155 72.9570663,121.556155 C73.9324864,121.556155 74.9018947,121.015893 75.3385041,119.979642 L90.1073266,85.0097322 L124.418368,3.59386284 C124.861741,2.5426045 125.828143,2.01735051 126.794546,2.01735051" id="Fill-3"></path>
                    </g>
                    <path d="M242.358233,203.934514 C238.364872,205.225138 233.470488,206.80015 227.947115,208.530487 C197.481393,218.073601 147.973937,232.497076 126.794245,232.497076 C105.615304,232.497076 56.1146118,218.080355 25.6481385,208.53724 C20.1247657,206.80015 15.2311325,205.231892 11.2377716,203.934514 L26.0614521,180.860107 L49.8262331,143.84921 C50.8414817,142.267445 53.1567893,142.267445 54.1720379,143.84921 L70.7894994,169.72172 C71.9129609,171.465564 74.5326178,171.242706 75.3382036,169.330031 L90.1077775,134.360121 L124.418819,52.9442517 C125.305564,50.8424853 128.283677,50.8424853 129.170422,52.9442517 L163.481464,134.258822 L178.264564,169.309771 C179.076914,171.222446 181.69657,171.445304 182.820032,169.701461 L199.417204,143.84921 C200.432452,142.267445 202.747008,142.267445 203.762257,143.84921 L227.527789,180.839847 L242.358233,203.934514 Z" id="Fill-6" fill="#AFB5BF"></path>
                    <path d="M227.947491,208.530412 C197.481017,218.073526 147.974313,232.497001 126.794621,232.497001 C105.614928,232.497001 56.1149876,218.08028 25.6485142,208.537165 L26.0610763,207.894854 L49.8266089,170.883957 C50.8418574,169.302943 53.1571651,169.302943 54.1724136,170.883957 L70.7898751,196.756468 C71.9133367,198.500312 74.5329935,198.277454 75.3378278,196.364779 L90.1074018,161.394869 L124.418443,79.9789996 C125.305189,77.8772332 128.284053,77.8772332 129.170047,79.9789996 L163.481088,161.29357 L178.264189,196.344519 C179.076538,198.257194 181.696195,198.480052 182.819656,196.736209 L199.416828,170.883957 C200.432076,169.302943 202.747384,169.302943 203.762633,170.883957 L227.528165,207.874595 L227.947491,208.530412 Z" id="Fill-8" fill="#808285"></path>
                    <g id="Group-13" transform="translate(126.248521, 2.135533)">
                        <path d="M0.546024852,27.2048552 L0.546024852,0.648763716" id="Fill-10" fill="#AFB5BF"></path>
                        <path d="M0.546024852,27.2048552 L0.546024852,0.648763716" id="Stroke-12" stroke="#44515C" stroke-width="2" stroke-linecap="round"></path>
                    </g>
                    <path d="M199.68721,95.2455819 C199.18447,101.654431 196.382204,106.927981 192.297163,110.885395 C188.206109,114.842808 182.884133,116.758485 177.178902,116.445583 C143.614831,114.599691 109.974109,114.599691 76.4107899,116.445583 C65.0424112,117.065383 54.9267485,107.695602 53.8731746,94.8801552 C53.6079024,91.4840129 54.0415059,88.3865151 55.0364645,85.3760594 C55.9202041,82.7062684 57.2976657,80.8393656 58.9997663,78.7195906 C62.6158846,74.2129113 67.9408669,71.8207546 73.9309083,71.4920956 C109.146731,69.5554091 144.44221,69.5554091 179.658033,71.4920956 C188.481151,71.974579 195.762985,77.7020985 198.500624,86.0581392 C199.494831,89.0685949 199.952482,91.8494396 199.68721,95.2455819" id="Fill-14" fill="#E1C29B"></path>
                    <path d="M199.68721,95.2455819 C199.18447,101.654431 196.382204,106.927981 192.297163,110.885395 C188.206109,114.842808 182.884133,116.758485 177.178902,116.445583 C143.614831,114.599691 109.974109,114.599691 76.4107899,116.445583 C65.0424112,117.065383 54.9267485,107.695602 53.8731746,94.8801552 C53.6079024,91.4840129 54.0415059,88.3865151 55.0364645,85.3760594 C55.9202041,82.7062684 57.2976657,80.8393656 58.9997663,78.7195906 C62.6158846,74.2129113 67.9408669,71.8207546 73.9309083,71.4920956 C109.146731,69.5554091 144.44221,69.5554091 179.658033,71.4920956 C188.481151,71.974579 195.762985,77.7020985 198.500624,86.0581392 C199.494831,89.0685949 199.952482,91.8494396 199.68721,95.2455819 L199.68721,95.2455819 Z" id="Stroke-16" stroke="#978466" stroke-width="2"></path>
                    <path d="M197.402262,87.4331791 C197.814073,86.777362 198.197327,86.1005347 198.549771,85.4087001 C195.81138,77.0526595 188.552842,70.8846769 179.718451,70.4021936 C144.462801,68.463256 109.126741,68.463256 73.8710905,70.4021936 C67.8720314,70.7308525 62.5808657,73.7105434 58.9639959,78.2164723 C57.2603923,80.3369977 55.9265166,82.7899338 55.0427769,85.4597248 C55.2449249,85.8559164 55.456842,86.2446044 55.6785284,86.6257887 C56.8403154,88.6240049 57.2468657,90.9951515 56.9124574,93.3100209 C56.7869604,94.1744389 56.819274,95.092883 57.0387059,96.0278351 C57.6661911,98.6983765 59.6576112,100.635813 62.1314811,100.977979 C64.6992858,101.3329 66.9281734,99.9417277 68.0681675,97.7761806 C68.2612976,97.4092531 68.6505639,97.2366697 69.0278065,97.3439716 C69.0323154,97.3454723 69.0375757,97.346973 69.0420846,97.3477234 C69.4133154,97.4527742 69.6906112,97.8016929 69.7063923,98.2211457 C69.7402089,99.1485942 70.0686053,100.139824 71.043274,101.194834 C71.8308243,102.045745 72.8806408,102.589758 73.9710373,102.534982 C75.758055,102.445689 77.2054041,101.082279 77.6435166,99.2739048 C77.8321379,98.4935274 78.4115284,97.9097451 79.1449722,97.872227 C79.2456704,97.8669745 79.3463686,97.8617219 79.4470669,97.8572197 C80.1557118,97.8212023 80.8388065,98.2774229 81.0710136,99.0180311 C81.6842207,100.963722 83.3915817,102.326381 85.3349071,102.240089 C87.423268,102.146294 89.0915521,100.411455 89.3718538,98.1986348 C89.4289663,97.7439149 89.7536053,97.3912444 90.1699249,97.3754868 C90.5915047,97.3589788 90.9597296,97.6913896 91.0288657,98.1506116 C91.5601615,101.636797 94.3458953,104.242808 97.5998006,104.140758 C100.575659,104.046963 103.015712,101.717837 103.650712,98.635346 C103.852108,97.6538714 104.589309,96.9215173 105.503108,96.9005071 C105.551203,96.8997567 105.600049,96.898256 105.648895,96.8975057 C106.607031,96.8757451 107.426895,97.634362 107.59673,98.6743649 C108.547351,104.423645 113.094552,108.739732 118.475144,108.692459 C123.618268,108.645186 127.923493,104.628494 129.037937,99.2423896 C129.34454,97.7439149 130.528872,96.6648932 131.922114,96.6723968 C132.018304,96.6731472 132.115244,96.6738975 132.212185,96.6738975 C133.395014,96.6814012 134.413268,97.491793 134.905487,98.6758656 C135.566789,100.262883 137.00512,101.371169 138.686179,101.392179 C140.83015,101.419192 142.629191,99.669346 142.927528,97.3732357 C142.970363,97.0445768 143.229623,96.8029599 143.530215,96.8082125 L143.530215,96.8082125 C143.839073,96.813465 144.100588,97.076092 144.116369,97.4160064 C144.32002,101.714835 147.472475,105.159751 151.395197,105.264051 C154.881309,105.356346 157.896244,102.783352 158.831836,99.2056218 C159.133931,98.0470615 160.099582,97.2509266 161.19073,97.2906958 C162.043659,97.322211 162.830457,97.8497161 163.19267,98.6976261 C163.591706,99.6310775 164.434114,100.289896 165.433582,100.331166 C166.676528,100.382941 167.757907,99.4614955 168.069771,98.1813765 C168.153937,97.8347089 168.428978,97.584838 168.753617,97.5998453 C169.091783,97.6148525 169.363067,97.9067437 169.384108,98.2789237 C169.547931,101.156565 171.63554,103.480439 174.29202,103.617005 C178.83396,103.85412 178.732511,100.15408 179.497517,98.7298917 C179.691398,98.3689672 180.023552,98.1311022 180.399292,98.0778264 C181.328872,97.9472633 183.138434,97.6748816 184.506126,97.3409701 C185.013375,97.2164099 185.514611,97.4760354 185.794913,97.9525158 C186.994274,99.9927524 189.157031,101.289379 191.638416,101.019999 C194.240789,100.736362 196.488463,98.6038308 197.127972,95.7974737 C197.451108,94.3717843 197.359428,92.9821123 196.948369,91.753018 C196.465167,90.311571 196.598179,88.7147988 197.402262,87.4331791" id="Fill-18" fill="#FFFFF9"></path>
                    <path d="M197.402262,87.4331791 C197.814073,86.777362 198.197327,86.1005347 198.549771,85.4087001 C195.81138,77.0526595 188.552842,70.8846769 179.718451,70.4021936 C144.462801,68.463256 109.126741,68.463256 73.8710905,70.4021936 C67.8720314,70.7308525 62.5808657,73.7105434 58.9639959,78.2164723 C57.2603923,80.3369977 55.9265166,82.7899338 55.0427769,85.4597248 C55.2449249,85.8559164 55.456842,86.2446044 55.6785284,86.6257887 C56.8403154,88.6240049 57.2468657,90.9951515 56.9124574,93.3100209 C56.7869604,94.1744389 56.819274,95.092883 57.0387059,96.0278351 C57.6661911,98.6983765 59.6576112,100.635813 62.1314811,100.977979 C64.6992858,101.3329 66.9281734,99.9417277 68.0681675,97.7761806 C68.2612976,97.4092531 68.6505639,97.2366697 69.0278065,97.3439716 C69.0323154,97.3454723 69.0375757,97.346973 69.0420846,97.3477234 C69.4133154,97.4527742 69.6906112,97.8016929 69.7063923,98.2211457 C69.7402089,99.1485942 70.0686053,100.139824 71.043274,101.194834 C71.8308243,102.045745 72.8806408,102.589758 73.9710373,102.534982 C75.758055,102.445689 77.2054041,101.082279 77.6435166,99.2739048 C77.8321379,98.4935274 78.4115284,97.9097451 79.1449722,97.872227 C79.2456704,97.8669745 79.3463686,97.8617219 79.4470669,97.8572197 C80.1557118,97.8212023 80.8388065,98.2774229 81.0710136,99.0180311 C81.6842207,100.963722 83.3915817,102.326381 85.3349071,102.240089 C87.423268,102.146294 89.0915521,100.411455 89.3718538,98.1986348 C89.4289663,97.7439149 89.7536053,97.3912444 90.1699249,97.3754868 C90.5915047,97.3589788 90.9597296,97.6913896 91.0288657,98.1506116 C91.5601615,101.636797 94.3458953,104.242808 97.5998006,104.140758 C100.575659,104.046963 103.015712,101.717837 103.650712,98.635346 C103.852108,97.6538714 104.589309,96.9215173 105.503108,96.9005071 C105.551203,96.8997567 105.600049,96.898256 105.648895,96.8975057 C106.607031,96.8757451 107.426895,97.634362 107.59673,98.6743649 C108.547351,104.423645 113.094552,108.739732 118.475144,108.692459 C123.618268,108.645186 127.923493,104.628494 129.037937,99.2423896 C129.34454,97.7439149 130.528872,96.6648932 131.922114,96.6723968 C132.018304,96.6731472 132.115244,96.6738975 132.212185,96.6738975 C133.395014,96.6814012 134.413268,97.491793 134.905487,98.6758656 C135.566789,100.262883 137.00512,101.371169 138.686179,101.392179 C140.83015,101.419192 142.629191,99.669346 142.927528,97.3732357 C142.970363,97.0445768 143.229623,96.8029599 143.530215,96.8082125 L143.530215,96.8082125 C143.839073,96.813465 144.100588,97.076092 144.116369,97.4160064 C144.32002,101.714835 147.472475,105.159751 151.395197,105.264051 C154.881309,105.356346 157.896244,102.783352 158.831836,99.2056218 C159.133931,98.0470615 160.099582,97.2509266 161.19073,97.2906958 C162.043659,97.322211 162.830457,97.8497161 163.19267,98.6976261 C163.591706,99.6310775 164.434114,100.289896 165.433582,100.331166 C166.676528,100.382941 167.757907,99.4614955 168.069771,98.1813765 C168.153937,97.8347089 168.428978,97.584838 168.753617,97.5998453 C169.091783,97.6148525 169.363067,97.9067437 169.384108,98.2789237 C169.547931,101.156565 171.63554,103.480439 174.29202,103.617005 C178.83396,103.85412 178.732511,100.15408 179.497517,98.7298917 C179.691398,98.3689672 180.023552,98.1311022 180.399292,98.0778264 C181.328872,97.9472633 183.138434,97.6748816 184.506126,97.3409701 C185.013375,97.2164099 185.514611,97.4760354 185.794913,97.9525158 C186.994274,99.9927524 189.157031,101.289379 191.638416,101.019999 C194.240789,100.736362 196.488463,98.6038308 197.127972,95.7974737 C197.451108,94.3717843 197.359428,92.9821123 196.948369,91.753018 C196.465167,90.311571 196.598179,88.7147988 197.402262,87.4331791 L197.402262,87.4331791 Z" id="Stroke-20" stroke="#E1C29B" stroke-width="2"></path>
                    <path d="M64.9468982,90.015853 C64.2592947,90.0608747 63.6009988,89.8185075 63.0907444,89.3330228 C62.2378154,88.5203798 62.143129,87.1629734 62.8810817,86.2422782 C64.7770639,83.8786353 66.6873243,81.5209952 68.6126142,79.1693581 C69.0597444,78.6215932 69.690987,78.2974364 70.3876083,78.2561665 C71.0834781,78.2148965 71.7485373,78.4625163 72.2580402,78.9532536 C73.1109692,79.7749009 73.1861172,81.133808 72.4353893,82.0462492 C70.5085964,84.3903827 68.5960817,86.7405192 66.697845,89.0959081 C66.2559751,89.6444234 65.6345018,89.9708312 64.9468982,90.015853" id="Fill-22" fill="#DB386C"></path>
                    <path d="M70.3431207,77.5073044 C69.4323278,77.5613305 68.5756414,77.9995424 67.9962509,78.7086353 C66.0709609,81.0617731 64.1614521,83.4201636 62.2662213,85.7853073 C61.2908012,87.0023958 61.4185527,88.795763 62.5450201,89.8687819 C63.2048189,90.4968356 64.0975763,90.8232434 64.9963456,90.7647151 C65.8943633,90.7054364 66.7367716,90.2657238 67.3086473,89.5558806 C69.206884,87.2019923 71.1201503,84.8526062 73.0476947,82.5099734 C74.0388959,81.3048907 73.941955,79.5092724 72.8154876,78.4234974 C72.1564402,77.7879401 71.2539136,77.4532782 70.3431207,77.5073044 M70.4317953,79.005779 C70.8804284,78.9787659 71.3395822,79.1363421 71.7010438,79.4845104 L71.7010438,79.4845104 C72.2691621,80.0307746 72.3225172,80.9754814 71.8227834,81.5832753 C69.8959905,83.9281592 67.9834757,86.2797964 66.0859905,88.6366861 C65.7733751,89.025374 65.3412746,89.2377267 64.8979018,89.2669909 C64.4537775,89.296255 63.9983811,89.1416803 63.6369195,88.7972637 C63.0695527,88.2562521 63.004174,87.3122956 63.4963929,86.6999996 C65.3916237,84.3378573 67.3026355,81.9809676 69.2279254,79.6300808 C69.5458012,79.2428936 69.9831621,79.0320417 70.4317953,79.005779" id="Fill-24" fill="#FFFFF9"></path>
                    <path d="M79.6849852,90.1872358 C78.3548669,90.2540181 77.2178787,89.2620385 77.1494941,87.9736655 C77.1457367,87.9076335 77.1419793,87.8416016 77.1389734,87.7755697 C77.0705888,86.4864463 78.1031213,85.3804115 79.4407544,85.3136292 C82.2723284,85.1718106 85.1039024,85.0427482 87.9369793,84.9271923 C89.2753639,84.8716655 90.4040858,85.8801531 90.452932,87.1700269 C90.4551864,87.2353084 90.4581923,87.3020907 90.4604467,87.3681226 C90.5092929,88.6579964 89.4677426,89.7482736 88.1376243,89.8030501 C85.3195769,89.918606 82.5022811,90.0461676 79.6849852,90.1872358" id="Fill-26" fill="#F79151"></path>
                    <path d="M87.905868,84.1770546 C85.0712882,84.2933608 82.2367083,84.4224232 79.4028799,84.5642418 C77.6346491,84.6520343 76.2714657,86.1144914 76.3631462,87.8163144 C76.3669036,87.8823463 76.3706609,87.9483782 76.3736669,88.0144102 C76.4660988,89.7162331 77.9683059,91.0241155 79.7230101,90.9363231 C82.5373,90.7960052 85.3523414,90.6676932 88.1681343,90.5521373 C89.9228385,90.4801025 91.2995485,89.0416569 91.2364243,87.3383332 C91.2334183,87.2723013 91.2311639,87.2062694 91.2289095,87.1402374 C91.1657852,85.4369138 89.6748503,84.1042694 87.905868,84.1770546 M87.9674893,85.6762795 C88.8737734,85.6395118 89.6432882,86.3253434 89.6771047,87.1995161 C89.6801107,87.265548 89.6823651,87.33158 89.685371,87.3976119 C89.7191876,88.2717846 89.0090396,89.0161446 88.106513,89.0529123 C85.2862112,89.1684682 82.4666609,89.2967803 79.6478621,89.4378485 C78.7453355,89.4828702 77.9698089,88.8067933 77.9239686,87.9326206 C77.9209627,87.8665887 77.9172053,87.8005567 77.9141994,87.7352752 C77.8683592,86.8611025 78.5724953,86.1077382 79.4780278,86.0627164 C82.3073473,85.9216482 85.1374183,85.7925858 87.9674893,85.6762795" id="Fill-28" fill="#FFFFF9"></path>
                    <path d="M102.170749,86.1329504 C101.480139,86.1509591 100.830109,85.8830795 100.339393,85.377335 C98.2299911,83.2050345 96.1063107,81.0394874 93.9676006,78.8821942 C93.135713,78.0417878 93.0861154,76.6821303 93.8608905,75.7861971 C94.3238018,75.2511884 94.9648136,74.9435396 95.6629379,74.9202784 C96.3618136,74.8977675 97.0208609,75.1633959 97.5183402,75.6676398 C99.6547959,77.8331869 101.776973,80.0062377 103.884873,82.1860418 C104.70624,83.0354525 104.736299,84.3958604 103.959269,85.2835396 C103.496358,85.8132958 102.861358,86.1149417 102.170749,86.1329504" id="Fill-30" fill="#4DBDE6"></path>
                    <path d="M95.6390408,74.1705158 C94.725242,74.2005303 93.8557805,74.615481 93.2561,75.3088163 C92.2310822,76.4936392 92.2994669,78.2900078 93.3996325,79.3997945 C95.5383426,81.5563373 97.6627746,83.7203837 99.7721769,85.8911835 C100.407928,86.5454999 101.288662,86.9064244 102.190437,86.8831631 C103.092212,86.8599019 103.952656,86.4532052 104.55384,85.7666232 C105.579609,84.5953068 105.542035,82.7974374 104.456899,81.6748946 C102.349751,79.4935898 100.227573,77.3190383 98.0911178,75.1519904 C97.4478515,74.4991747 96.5528396,74.1405013 95.6390408,74.1705158 L95.6390408,74.1705158 M95.687887,75.6704911 C96.1380231,75.6554839 96.5934195,75.8258163 96.9466148,76.182989 C99.0830704,78.3477858 101.205999,80.5193358 103.313899,82.6983896 C103.860224,83.2634128 103.882769,84.20887 103.365751,84.8001559 C103.037354,85.1760877 102.596988,85.371182 102.15136,85.3831878 C101.705733,85.3944433 101.255597,85.2226102 100.907662,84.8639367 C98.7982598,82.6901356 96.6745793,80.523838 94.5366207,78.3642938 C93.9827805,77.8052734 93.9489639,76.8590659 94.4652302,76.2632778 C94.7943781,75.8835942 95.2377509,75.6854984 95.687887,75.6704911" id="Fill-32" fill="#FFFFF9"></path>
                    <path d="M112.441216,96.6726219 C111.17347,96.6921313 110.123654,95.7024028 110.101109,94.4635537 C110.042494,91.1814666 109.983879,87.9001299 109.925263,84.6180428 C109.902719,83.3791938 110.932246,82.3511967 112.220281,82.3316872 C113.509068,82.3121778 114.569405,83.3071589 114.585186,84.5467583 C114.627269,87.8288454 114.670104,91.1109325 114.712186,94.3922692 C114.727967,95.6318687 113.708962,96.6531125 112.441216,96.6726219" id="Fill-34" fill="#00AD65"></path>
                    <path d="M112.209084,81.5816245 C110.488948,81.6078872 109.115244,82.9795505 109.147557,84.6318495 C109.208427,87.9139366 109.270049,91.1952733 109.33167,94.4773604 C109.363232,96.1304097 110.763238,97.4487972 112.452563,97.4225345 C114.141889,97.3970222 115.501315,96.035864 115.481776,94.3828147 C115.442699,91.1007276 115.402871,87.8186405 115.363043,84.5365534 C115.344256,82.8842544 113.92922,81.5553618 112.209084,81.5816245 L112.209084,81.5816245 M112.23238,83.0823502 C113.087563,83.0688437 113.796208,83.7336652 113.80748,84.5568132 C113.852569,87.8389003 113.897658,91.1209874 113.942747,94.4030745 C113.954019,95.2262225 113.273179,95.9090527 112.430019,95.9225592 C111.586108,95.9353154 110.884978,95.2734954 110.870699,94.449597 C110.81509,91.1682602 110.758729,87.8861731 110.70312,84.6048364 C110.688841,83.780938 111.377196,83.0951064 112.23238,83.0823502" id="Fill-36" fill="#FFFFF9"></path>
                    <path d="M122.18903,84.7841731 C121.497669,84.787925 120.852899,84.5057885 120.372704,83.9895389 C119.568621,83.1266216 119.556598,81.7662138 120.351663,80.8920411 C122.393432,78.6477058 124.449479,76.4101238 126.519805,74.1792951 C127.001503,73.660044 127.653036,73.3749061 128.352663,73.3756565 C129.051538,73.3771572 129.70232,73.6645462 130.182515,74.185298 C130.985846,75.0572196 130.978331,76.4176274 130.171243,77.2827958 C128.099414,79.5061209 126.041112,81.7361993 123.99784,83.9722806 C123.522154,84.4930324 122.880391,84.7811717 122.18903,84.7841731" id="Fill-38" fill="#FFEB84"></path>
                    <path d="M128.353564,72.6256688 C127.438263,72.6241681 126.554523,73.0098546 125.930795,73.6821797 C123.86047,75.9145091 121.804422,78.1535919 119.763405,80.3986775 C118.712837,81.5542363 118.730872,83.3521057 119.793464,84.4919068 C120.41644,85.1589794 121.289659,85.538663 122.192937,85.5341608 C123.095464,85.5296586 123.965677,85.141721 124.581138,84.4686456 C126.625162,82.2333147 128.683464,80.004737 130.756044,77.7829126 C131.822393,76.64011 131.835168,74.8422406 130.773328,73.6904337 C130.151103,73.0158575 129.268866,72.6271695 128.353564,72.6256688 L128.353564,72.6256688 M128.35131,74.1263945 C128.801446,74.1271448 129.252334,74.3124845 129.592754,74.681663 C130.127807,75.2609431 130.123298,76.2071507 129.586742,76.7834293 C127.514162,79.0082552 125.456612,81.2390839 123.41334,83.4766659 C123.076677,83.8458444 122.63105,84.031184 122.185422,84.0334351 C121.739044,84.0356862 121.292665,83.8540984 120.951493,83.4886717 C120.417192,82.9138938 120.409677,81.9676862 120.938718,81.386155 C122.980488,79.1433205 125.037286,76.9064888 127.107612,74.6771608 C127.449535,74.309483 127.900422,74.1256441 128.35131,74.1263945" id="Fill-40" fill="#FFFFF9"></path>
                    <path d="M136.957401,93.1973164 C135.631792,93.1830595 134.561685,92.1242975 134.572206,90.8336734 C134.572957,90.7676415 134.572957,90.7016096 134.573709,90.6355776 C134.58423,89.3449536 135.67688,88.3034499 137.010005,88.3177068 C139.831809,88.3484717 142.653614,88.3912424 145.474667,88.4475196 C146.807792,88.4737823 147.86888,89.5483019 147.838821,90.8381756 C147.83807,90.9042075 147.836567,90.9702395 147.835064,91.0362714 C147.805005,92.3268955 146.703336,93.3518911 145.377727,93.3263788 C142.570951,93.270852 139.764176,93.2273309 136.957401,93.1973164" id="Fill-42" fill="#DB386C"></path>
                    <path d="M145.489772,87.6969316 C142.666464,87.6414048 139.842405,87.5978837 137.018346,87.5671189 C135.256127,87.5483598 133.812536,88.9252756 133.801263,90.6293496 C133.800512,90.6953816 133.79976,90.7614135 133.79976,90.8274454 C133.787737,92.5322698 135.200518,93.9286951 136.94921,93.9474541 C139.753731,93.978219 142.559003,94.0209897 145.363524,94.0765165 C147.111464,94.1110332 148.566328,92.758129 148.606908,91.054055 C148.608411,90.9880231 148.609914,90.9219911 148.611417,90.8559592 C148.652749,89.1518852 147.251991,87.7314483 145.489772,87.6969316 M145.459713,89.1976573 C146.362991,89.2149157 147.085914,89.9472698 147.066376,90.8214425 C147.064873,90.8874745 147.06337,90.9535064 147.061867,91.0195383 C147.04308,91.8944614 146.291601,92.5937996 145.392831,92.5757909 C142.583802,92.520264 139.774772,92.4774933 136.965743,92.4474788 C136.066222,92.4377241 135.337287,91.7151247 135.344802,90.8402016 C135.345553,90.7741697 135.346305,90.7081377 135.346305,90.6421058 C135.354571,89.7671827 136.099287,89.0580898 137.001814,89.0678446 C139.821364,89.0986094 142.640914,89.1413801 145.459713,89.1976573" id="Fill-44" fill="#FFFFF9"></path>
                    <path d="M156.864914,89.1485086 C156.176559,89.126748 155.544565,88.8213504 155.086163,88.2878424 C153.112027,85.997735 151.123612,83.7136305 149.120169,81.4355289 C148.340885,80.5493504 148.370192,79.1889425 149.193062,78.3395318 C149.685281,77.8315361 150.340571,77.5614055 151.037192,77.5794142 C151.733814,77.5966726 152.374074,77.8998192 152.840743,78.4318264 C154.84118,80.7174316 156.82734,83.0090398 158.799222,85.3074012 C159.567985,86.202584 159.519139,87.5622415 158.694015,88.4033983 C158.202547,88.9061414 157.552518,89.1702691 156.864914,89.1485086" id="Fill-46" fill="#9E479B"></path>
                    <path d="M151.056355,76.8289763 C150.144811,76.8057151 149.255811,77.1703914 148.618556,77.8277093 C147.530414,78.9517528 147.494343,80.7488718 148.524621,81.9201882 C150.528065,84.1967891 152.517231,86.4793929 154.491367,88.7687499 C155.086538,89.4583334 155.941722,89.8695322 156.840491,89.8987964 C157.740012,89.9273102 158.619994,89.5708878 159.257249,88.9203232 C160.346142,87.8097862 160.413024,86.0134176 159.398527,84.8300954 C157.427396,82.5302332 155.441237,80.2371244 153.440047,77.9500184 C152.837361,77.2611853 151.967899,76.8522376 151.056355,76.8289763 M151.01803,78.3289517 C151.466663,78.3409575 151.910787,78.5360518 152.240686,78.9134843 C154.242627,81.1975888 156.229538,83.4884466 158.20142,85.7853073 C158.713178,86.3810954 158.680112,87.3265525 158.131533,87.8863232 C157.782846,88.2434959 157.33271,88.4130779 156.888586,88.398821 C156.445213,88.3845642 156.006349,88.1864684 155.680959,87.8082855 C153.707574,85.5166774 151.71916,83.2310721 149.716467,80.9522202 C149.197195,80.3616846 149.218988,79.4154771 149.766817,78.8504538 L149.766817,78.8504538 C150.116254,78.4902797 150.569396,78.3176962 151.01803,78.3289517" id="Fill-48" fill="#FFFFF9"></path>
                    <path d="M166.759567,87.0892878 C165.478295,87.0352617 164.475821,85.9862544 164.524667,84.7481557 C164.655425,81.4683197 164.786182,78.1884837 164.917691,74.9086478 C164.966537,73.6705491 166.0652,72.7048321 167.366762,72.7596086 C168.668324,72.8151354 169.681318,73.8693952 169.624957,75.1082443 C169.478419,78.3865795 169.331129,81.6656652 169.183839,84.9447508 C169.12823,86.1828495 168.040088,87.1433139 166.759567,87.0892878" id="Fill-50" fill="#4DBDE6"></path>
                    <path d="M167.3987,72.0099961 C165.66128,71.9364605 164.195144,73.2263343 164.13202,74.8778829 C164.003517,78.1577189 163.875014,81.4375549 163.747262,84.7173909 C163.683386,86.3689395 165.02102,87.7668655 166.727629,87.8389003 C168.43499,87.9109351 169.885345,86.6315665 169.961996,84.9800179 C170.11154,81.7009322 170.261836,78.4218466 170.41138,75.1435113 C170.488031,73.4919627 169.136872,72.0835316 167.3987,72.0099961 L167.3987,72.0099961 M167.334824,73.509221 C168.199777,73.5459888 168.876108,74.2505795 168.840037,75.0729772 C168.695753,78.3520628 168.550718,81.6311485 168.406434,84.9102341 C168.370363,85.7333821 167.643682,86.3756927 166.791505,86.3396753 C165.939327,86.3036579 165.269008,85.6020687 165.302824,84.7789206 C165.436588,81.499835 165.569599,78.219999 165.703363,74.940163 C165.737179,74.1177653 166.471375,73.4732036 167.334824,73.509221" id="Fill-52" fill="#FFFFF9"></path>
                    <path d="M179.669605,92.3312476 C178.982753,92.2929791 178.360528,91.9718238 177.915653,91.4278107 C177.170185,90.518371 177.240824,89.1594639 178.084736,88.3348151 C180.246741,86.2187919 182.423777,84.1102723 184.615091,82.0092563 C185.124593,81.5200197 185.78815,81.2746511 186.481765,81.3181721 C187.176883,81.3616932 187.804369,81.688101 188.249244,82.2373666 C188.992457,83.1558107 188.90228,84.5132171 188.047848,85.3281112 C185.855783,87.4216235 183.677244,89.5226395 181.512984,91.6304087 C181.009493,92.121146 180.355706,92.3695161 179.669605,92.3312476" id="Fill-54" fill="#00AD65"></path>
                    <path d="M186.529108,80.56931 C185.621321,80.5122824 184.720298,80.8431925 184.060499,81.4772491 C181.869185,83.5797657 179.692901,85.6897861 177.530895,87.8065597 C176.417954,88.8968369 176.326274,90.6924552 177.310712,91.8937861 C177.887096,92.5983768 178.731008,93.0298354 179.626771,93.0801097 C180.522534,93.130384 181.40928,92.7957222 182.061564,92.1609152 C184.225824,90.0538964 186.404363,87.9543811 188.597179,85.8631199 C189.72515,84.7870996 189.847641,82.992982 188.864706,81.7781446 C188.289073,81.0675509 187.437647,80.6263376 186.529108,80.56931 M186.435173,82.0670343 C186.882304,82.095548 187.31741,82.3071504 187.633031,82.6965887 L187.633031,82.6965887 C188.128256,83.307384 188.066635,84.2513405 187.497765,84.7946032 C185.3057,86.8888659 183.127913,88.9906322 180.963653,91.0999022 C180.6067,91.4480705 180.153558,91.6071475 179.710937,91.5816351 C179.269067,91.5568731 178.836215,91.3490226 178.520593,90.9625858 C178.024617,90.357043 178.075718,89.4115858 178.636321,88.8638209 C180.799079,86.748548 182.976114,84.6415292 185.167428,82.5412636 C185.528889,82.1945959 185.988043,82.0392708 186.435173,82.0670343" id="Fill-56" fill="#FFFFF9"></path>
                    <path d="M103.357026,17.8486146 C102.375594,17.6647757 101.579777,16.5947583 101.579777,15.6162851 L101.579777,3.16926626 C101.579777,2.18779166 102.375594,1.66854057 103.357026,1.85312983 C110.595274,3.23454783 117.834274,-0.985492809 125.073274,0.396675551 C126.054706,0.580514448 126.849771,1.6497815 126.849771,2.62825465 L126.849771,15.0760239 C126.849771,16.0567481 126.054706,16.5759992 125.073274,16.3921603 C117.834274,15.009992 110.595274,19.230783 103.357026,17.8486146 Z" id="Fill-58" fill="#FFFFF9"></path>
                    <path d="M103.357026,17.8486146 C102.375594,17.6647757 101.579777,16.5947583 101.579777,15.6162851 L101.579777,3.16926626 C101.579777,2.18779166 102.375594,1.66854057 103.357026,1.85312983 C110.595274,3.23454783 117.834274,-0.985492809 125.073274,0.396675551 C126.054706,0.580514448 126.849771,1.6497815 126.849771,2.62825465 L126.849771,15.0760239 C126.849771,16.0567481 126.054706,16.5759992 125.073274,16.3921603 C117.834274,15.009992 110.595274,19.230783 103.357026,17.8486146 Z" id="Stroke-60" stroke="#E1C29B" stroke-width="2"></path>
                    <path d="M117.937678,8.75391677 C117.800909,9.58006626 117.658128,10.4122187 117.532631,11.2541258 C117.495808,11.504747 117.371814,11.5872869 117.129838,11.589538 C115.979323,11.6608224 116.189737,11.8056425 116.030423,10.8354233 C115.741855,9.1148413 115.461554,7.4062651 115.176743,5.70669326 C115.163216,5.62340298 115.138417,5.54461488 115.162465,5.45907352 L115.162465,8.69613883 C115.162465,10.3671969 115.154199,12.040506 115.169228,13.7078123 C115.171483,14.0522288 115.039974,14.1775394 114.720595,14.2683333 C114.416246,14.3553754 114.229128,14.3808877 114.230631,13.9952012 C114.242654,10.7408776 114.2404,7.48955538 114.232885,4.24048426 C114.232885,3.94409094 114.328323,3.78951619 114.634926,3.70022301 C115.768157,3.38657134 115.550228,3.33554667 115.736595,4.3567905 C116.106323,6.40528107 116.4505,8.48228542 116.827743,10.7221185 C116.920175,10.1405873 116.991565,9.68661779 117.065962,9.23339863 C117.376323,7.33798208 117.690441,5.47182969 117.997796,3.64094435 C118.039128,3.39332461 118.168382,3.30628252 118.427642,3.38582098 C119.597696,3.8457934 119.393293,3.76400385 119.395548,4.75448281 C119.404565,7.83922446 119.393293,10.9119603 119.406068,13.9982027 C119.407571,14.3591272 119.261033,14.3246105 118.952175,14.176789 C118.643317,14.0342201 118.463713,13.9486787 118.468974,13.5622419 C118.505796,10.9202143 118.521577,8.27293419 118.544122,5.62640443 L118.544122,5.41855393 C118.528341,5.41180066 118.513311,5.40504739 118.49753,5.39829413 C118.311163,6.50207787 118.124045,7.62161924 117.937678,8.75391677 Z" id="Fill-62" fill="#000000"></path>
                    <path d="M109.040464,5.42410661 C109.071274,4.36684536 109.570257,4.29481053 110.623831,4.36909645 C110.945464,4.38710516 111.274612,4.39460879 111.594742,4.40811532 C112.536345,4.42837512 113.002262,4.72326771 113.055617,5.66122127 C113.098452,6.40708194 113.075907,7.17395276 113.083422,7.93181924 C113.08718,8.27323433 112.830925,8.27848687 112.629529,8.32651009 C112.410848,8.38053622 112.158351,8.46307613 112.159854,8.11115596 C112.16286,7.51311677 112.141819,6.9188294 112.16286,6.31853912 C112.207197,5.05567845 111.275363,5.19374522 110.463014,5.25602533 C110.10531,5.28603985 109.970044,5.54866684 109.962529,5.89383375 C109.94299,6.75750139 109.939233,7.62717192 109.936978,8.49759282 C109.933221,9.94429239 109.929464,11.3917423 109.938481,12.8421937 C109.945245,13.8431777 110.336014,14.3886915 111.346754,14.2461226 C111.860014,14.1583301 112.118523,13.8386756 112.139564,13.3006654 C112.165115,12.6388454 112.174132,11.9785261 112.153091,11.3242097 C112.141067,10.934021 112.346973,10.8822459 112.647564,10.8132126 C112.937635,10.7464303 113.103712,10.7471806 113.090186,11.1006015 C113.063132,11.8156973 113.094694,12.5180369 113.059375,13.2346335 C113.012783,14.1755885 112.5897,14.8246523 111.664629,15.0362547 C111.179925,15.1390544 110.668168,15.0917815 110.185718,14.8854317 C109.463546,14.5725304 109.066014,13.76514 109.044973,12.9284854 C109.01341,11.6446146 109.036706,10.392259 109.036706,9.12714725 C109.032197,7.88904856 109.004393,6.6359426 109.040464,5.42410661 Z" id="Fill-64" fill="#000000"></path>
                </g>
            </g>
        </g>
    </g>
</svg>