<?xml version="1.0" encoding="UTF-8"?>
<svg width="310px" height="249px" viewBox="0 0 310 249" version="1.1" xmlns="http://www.w3.org/2000/svg" xmlns:xlink="http://www.w3.org/1999/xlink">
    <!-- Generator: Sketch 41.2 (35397) - http://www.bohemiancoding.com/sketch -->
    <title>tinysummit</title>
    <desc>Created with Sketch.</desc>
    <defs></defs>
    <g id="CreativeMornings" stroke="none" stroke-width="1" fill="none" fill-rule="evenodd">
        <g id="CreativeMornings-Showcase" transform="translate(0.000000, -794.000000)">
            <g id="Title" transform="translate(0.000000, 765.000000)">
                <g id="tinysummit" transform="translate(-18.000000, 30.000000)">
                    <path d="M168.7266,310.846 C140.0486,310.846 71.9006,290.812 33.8316,278.869 C27.2066,276.783 20.5726,274.66 14.6446,272.733 C10.1826,271.282 6.5676,270.091 4.0356,269.243 C2.7246,268.805 1.7106,267.808 1.2536,266.507 C0.7976,265.209 0.9636,263.799 1.7096,262.638 L33.8376,212.568 L65.4626,163.243 C66.2826,161.966 67.6776,161.203 69.1966,161.203 C70.7146,161.203 72.1096,161.966 72.9296,163.243 L95.0416,197.724 C95.4986,198.435 96.2446,198.843 97.0846,198.843 C97.8686,198.843 98.8696,198.451 99.3316,197.354 L118.9856,150.749 L164.6436,42.248 C165.3486,40.574 166.9136,39.534 168.7266,39.534 C170.5396,39.534 172.1046,40.574 172.8096,42.247 L218.4676,150.614 L238.1396,197.326 C238.6046,198.424 239.6106,198.816 240.3946,198.816 C241.2366,198.816 241.9816,198.408 242.4396,197.696 L264.5246,163.243 C265.3436,161.966 266.7396,161.203 268.2576,161.203 C269.7756,161.203 271.1706,161.966 271.9906,163.243 L303.6156,212.54 L335.7446,262.639 C336.4896,263.799 336.6566,265.209 336.1996,266.507 C335.7426,267.808 334.7286,268.805 333.4176,269.243 C330.8846,270.091 327.2796,271.282 322.8176,272.733 C317.4296,274.476 310.9396,276.568 303.6316,278.861 C265.5506,290.806 197.3886,310.846 168.7266,310.846" id="Fill-1" fill="#F8F9F9"></path>
                    <g id="Group-5" transform="translate(0.000000, 37.846000)" fill="#44515C">
                        <path d="M168.7266,0.6885 C166.5036,0.6885 164.5856,1.9625 163.7216,4.0135 L118.0636,112.5155 L98.4106,159.1175 C98.0676,159.9335 97.3086,159.9965 97.0846,159.9965 C96.7946,159.9965 96.2526,159.9105 95.8826,159.3355 L73.7706,124.8575 C72.7666,123.2915 71.0566,122.3565 69.1956,122.3565 C67.3356,122.3565 65.6246,123.2915 64.6206,124.8585 L32.9966,174.1825 L0.8676,224.2535 C-0.0454,225.6735 -0.2494,227.4025 0.3106,228.9935 C0.8706,230.5865 2.1126,231.8085 3.7176,232.3455 C6.3776,233.2355 10.0486,234.4425 14.3356,235.8375 C20.2356,237.7575 26.8726,239.8805 33.5296,241.9765 C117.9006,268.4445 153.6186,274.0005 168.7266,274.0005 C183.8256,274.0005 219.5386,268.4425 303.9306,241.9685 C311.2506,239.6715 317.7406,237.5805 323.1246,235.8375 C328.2736,234.1635 331.7366,233.0145 333.7356,232.3465 C335.3406,231.8085 336.5826,230.5865 337.1426,228.9935 C337.7026,227.4025 337.4986,225.6735 336.5846,224.2515 L304.4566,174.1545 L272.8316,124.8575 C271.8286,123.2915 270.1176,122.3565 268.2576,122.3565 C266.3966,122.3565 264.6866,123.2915 263.6826,124.8585 L241.5966,159.3115 C241.2276,159.8835 240.6856,159.9695 240.3946,159.9695 C240.1696,159.9695 239.4066,159.9055 239.0596,159.0875 L219.3896,112.3805 L173.7316,4.0125 C172.8676,1.9625 170.9496,0.6885 168.7266,0.6885 M168.7266,2.6885 C170.0126,2.6885 171.2986,3.3885 171.8886,4.7895 L217.5466,113.1565 L237.2176,159.8685 C237.8036,161.2495 239.0956,161.9695 240.3946,161.9695 C241.4926,161.9695 242.5946,161.4555 243.2796,160.3905 L265.3656,125.9375 C266.0416,124.8835 267.1496,124.3565 268.2576,124.3565 C269.3656,124.3565 270.4726,124.8835 271.1486,125.9375 L302.7736,175.2345 L334.9026,225.3335 C336.1186,227.2245 335.2266,229.7375 333.1006,230.4495 C330.5696,231.2965 326.9666,232.4855 322.5086,233.9355 C317.1936,235.6555 310.6816,237.7545 303.3316,240.0605 C262.7896,252.7785 196.9106,272.0005 168.7266,272.0005 C140.5426,272.0005 74.6726,252.7875 34.1306,240.0695 C26.7806,237.7545 20.2686,235.6645 14.9536,233.9355 C10.4956,232.4855 6.8836,231.2965 4.3526,230.4495 C2.2266,229.7375 1.3346,227.2245 2.5506,225.3335 L34.6796,175.2615 L66.3046,125.9375 C66.9806,124.8835 68.0876,124.3565 69.1956,124.3565 C70.3036,124.3565 71.4116,124.8835 72.0876,125.9375 L94.2006,160.4175 C94.8856,161.4825 95.9876,161.9965 97.0846,161.9965 C98.3826,161.9965 99.6726,161.2765 100.2536,159.8955 L119.9066,113.2915 L165.5646,4.7895 C166.1546,3.3885 167.4406,2.6885 168.7266,2.6885" id="Fill-3"></path>
                    </g>
                    <path d="M322.5082,271.7812 C317.1942,273.5012 310.6812,275.6002 303.3312,277.9062 C262.7902,290.6242 196.9102,309.8462 168.7262,309.8462 C140.5432,309.8462 74.6722,290.6332 34.1302,277.9152 C26.7802,275.6002 20.2682,273.5102 14.9542,271.7812 L34.6802,241.0302 L66.3042,191.7062 C67.6552,189.5982 70.7362,189.5982 72.0872,191.7062 L94.2002,226.1862 C95.6952,228.5102 99.1812,228.2132 100.2532,225.6642 L119.9072,179.0602 L165.5652,70.5582 C166.7452,67.7572 170.7082,67.7572 171.8882,70.5582 L217.5462,178.9252 L237.2182,225.6372 C238.2992,228.1862 241.7852,228.4832 243.2802,226.1592 L265.3662,191.7062 C266.7172,189.5982 269.7972,189.5982 271.1482,191.7062 L302.7732,241.0032 L322.5082,271.7812 Z" id="Fill-6" fill="#AFB5BF"></path>
                    <path d="M303.3317,277.9061 C262.7897,290.6241 196.9107,309.8461 168.7267,309.8461 C140.5427,309.8461 74.6727,290.6331 34.1307,277.9151 L34.6797,277.0591 L66.3047,227.7351 C67.6557,225.6281 70.7367,225.6281 72.0877,227.7351 L94.2007,262.2151 C95.6957,264.5391 99.1817,264.2421 100.2527,261.6931 L119.9067,215.0891 L165.5647,106.5871 C166.7447,103.7861 170.7087,103.7861 171.8877,106.5871 L217.5457,214.9541 L237.2177,261.6661 C238.2987,264.2151 241.7847,264.5121 243.2797,262.1881 L265.3657,227.7351 C266.7167,225.6281 269.7977,225.6281 271.1487,227.7351 L302.7737,277.0321 L303.3317,277.9061 Z" id="Fill-8" fill="#808285"></path>
                    <g id="Group-13" transform="translate(168.000000, 2.846000)">
                        <path d="M0.7266,36.2556 L0.7266,0.8646" id="Fill-10" fill="#AFB5BF"></path>
                        <path d="M0.7266,36.2556 L0.7266,0.8646" id="Stroke-12" stroke="#44515C" stroke-width="2" stroke-linecap="round"></path>
                    </g>
                    <path d="M265.7255,126.9327 C265.0565,135.4737 261.3275,142.5017 255.8915,147.7757 C250.4475,153.0497 243.3655,155.6027 235.7735,155.1857 C191.1095,152.7257 146.3435,152.7257 101.6805,155.1857 C86.5525,156.0117 73.0915,143.5247 71.6895,126.4457 C71.3365,121.9197 71.9135,117.7917 73.2375,113.7797 C74.4135,110.2217 76.2465,107.7337 78.5115,104.9087 C83.3235,98.9027 90.4095,95.7147 98.3805,95.2767 C145.2425,92.6957 192.2105,92.6957 239.0725,95.2767 C250.8135,95.9197 260.5035,103.5527 264.1465,114.6887 C265.4695,118.7007 266.0785,122.4067 265.7255,126.9327" id="Fill-14" fill="#E1C29B"></path>
                    <path d="M265.7255,126.9327 C265.0565,135.4737 261.3275,142.5017 255.8915,147.7757 C250.4475,153.0497 243.3655,155.6027 235.7735,155.1857 C191.1095,152.7257 146.3435,152.7257 101.6805,155.1857 C86.5525,156.0117 73.0915,143.5247 71.6895,126.4457 C71.3365,121.9197 71.9135,117.7917 73.2375,113.7797 C74.4135,110.2217 76.2465,107.7337 78.5115,104.9087 C83.3235,98.9027 90.4095,95.7147 98.3805,95.2767 C145.2425,92.6957 192.2105,92.6957 239.0725,95.2767 C250.8135,95.9197 260.5035,103.5527 264.1465,114.6887 C265.4695,118.7007 266.0785,122.4067 265.7255,126.9327 L265.7255,126.9327 Z" id="Stroke-16" stroke="#978466" stroke-width="2"></path>
                    <path d="M262.6849,116.5212 C263.2329,115.6472 263.7429,114.7452 264.2119,113.8232 C260.5679,102.6872 250.9089,94.4672 239.1529,93.8242 C192.2379,91.2402 145.2159,91.2402 98.3009,93.8242 C90.3179,94.2622 83.2769,98.2332 78.4639,104.2382 C76.1969,107.0642 74.4219,110.3332 73.2459,113.8912 C73.5149,114.4192 73.7969,114.9372 74.0919,115.4452 C75.6379,118.1082 76.1789,121.2682 75.7339,124.3532 C75.5669,125.5052 75.6099,126.7292 75.9019,127.9752 C76.7369,131.5342 79.3869,134.1162 82.6789,134.5722 C86.0959,135.0452 89.0619,133.1912 90.5789,130.3052 C90.8359,129.8162 91.3539,129.5862 91.8559,129.7292 C91.8619,129.7312 91.8689,129.7332 91.8749,129.7342 C92.3689,129.8742 92.7379,130.3392 92.7589,130.8982 C92.8039,132.1342 93.2409,133.4552 94.5379,134.8612 C95.5859,135.9952 96.9829,136.7202 98.4339,136.6472 C100.8119,136.5282 102.7379,134.7112 103.3209,132.3012 C103.5719,131.2612 104.3429,130.4832 105.3189,130.4332 C105.4529,130.4262 105.5869,130.4192 105.7209,130.4132 C106.6639,130.3652 107.5729,130.9732 107.8819,131.9602 C108.6979,134.5532 110.9699,136.3692 113.5559,136.2542 C116.3349,136.1292 118.5549,133.8172 118.9279,130.8682 C119.0039,130.2622 119.4359,129.7922 119.9899,129.7712 C120.5509,129.7492 121.0409,130.1922 121.1329,130.8042 C121.8399,135.4502 125.5469,138.9232 129.8769,138.7872 C133.8369,138.6622 137.0839,135.5582 137.9289,131.4502 C138.1969,130.1422 139.1779,129.1662 140.3939,129.1382 C140.4579,129.1372 140.5229,129.1352 140.5879,129.1342 C141.8629,129.1052 142.9539,130.1162 143.1799,131.5022 C144.4449,139.1642 150.4959,144.9162 157.6559,144.8532 C164.4999,144.7902 170.2289,139.4372 171.7119,132.2592 C172.1199,130.2622 173.6959,128.8242 175.5499,128.8342 C175.6779,128.8352 175.8069,128.8362 175.9359,128.8362 C177.5099,128.8462 178.8649,129.9262 179.5199,131.5042 C180.3999,133.6192 182.3139,135.0962 184.5509,135.1242 C187.4039,135.1602 189.7979,132.8282 190.1949,129.7682 C190.2519,129.3302 190.5969,129.0082 190.9969,129.0152 L190.9969,129.0152 C191.4079,129.0222 191.7559,129.3722 191.7769,129.8252 C192.0479,135.5542 196.2429,140.1452 201.4629,140.2842 C206.1019,140.4072 210.1139,136.9782 211.3589,132.2102 C211.7609,130.6662 213.0459,129.6052 214.4979,129.6582 C215.6329,129.7002 216.6799,130.4032 217.1619,131.5332 C217.6929,132.7772 218.8139,133.6552 220.1439,133.7102 C221.7979,133.7792 223.2369,132.5512 223.6519,130.8452 C223.7639,130.3832 224.1299,130.0502 224.5619,130.0702 C225.0119,130.0902 225.3729,130.4792 225.4009,130.9752 C225.6189,134.8102 228.3969,137.9072 231.9319,138.0892 C237.9759,138.4052 237.8409,133.4742 238.8589,131.5762 C239.1169,131.0952 239.5589,130.7782 240.0589,130.7072 C241.2959,130.5332 243.7039,130.1702 245.5239,129.7252 C246.1989,129.5592 246.8659,129.9052 247.2389,130.5402 C248.8349,133.2592 251.7129,134.9872 255.0149,134.6282 C258.4779,134.2502 261.4689,131.4082 262.3199,127.6682 C262.7499,125.7682 262.6279,123.9162 262.0809,122.2782 C261.4379,120.3572 261.6149,118.2292 262.6849,116.5212" id="Fill-18" fill="#FFFFF9"></path>
                    <path d="M262.6849,116.5212 C263.2329,115.6472 263.7429,114.7452 264.2119,113.8232 C260.5679,102.6872 250.9089,94.4672 239.1529,93.8242 C192.2379,91.2402 145.2159,91.2402 98.3009,93.8242 C90.3179,94.2622 83.2769,98.2332 78.4639,104.2382 C76.1969,107.0642 74.4219,110.3332 73.2459,113.8912 C73.5149,114.4192 73.7969,114.9372 74.0919,115.4452 C75.6379,118.1082 76.1789,121.2682 75.7339,124.3532 C75.5669,125.5052 75.6099,126.7292 75.9019,127.9752 C76.7369,131.5342 79.3869,134.1162 82.6789,134.5722 C86.0959,135.0452 89.0619,133.1912 90.5789,130.3052 C90.8359,129.8162 91.3539,129.5862 91.8559,129.7292 C91.8619,129.7312 91.8689,129.7332 91.8749,129.7342 C92.3689,129.8742 92.7379,130.3392 92.7589,130.8982 C92.8039,132.1342 93.2409,133.4552 94.5379,134.8612 C95.5859,135.9952 96.9829,136.7202 98.4339,136.6472 C100.8119,136.5282 102.7379,134.7112 103.3209,132.3012 C103.5719,131.2612 104.3429,130.4832 105.3189,130.4332 C105.4529,130.4262 105.5869,130.4192 105.7209,130.4132 C106.6639,130.3652 107.5729,130.9732 107.8819,131.9602 C108.6979,134.5532 110.9699,136.3692 113.5559,136.2542 C116.3349,136.1292 118.5549,133.8172 118.9279,130.8682 C119.0039,130.2622 119.4359,129.7922 119.9899,129.7712 C120.5509,129.7492 121.0409,130.1922 121.1329,130.8042 C121.8399,135.4502 125.5469,138.9232 129.8769,138.7872 C133.8369,138.6622 137.0839,135.5582 137.9289,131.4502 C138.1969,130.1422 139.1779,129.1662 140.3939,129.1382 C140.4579,129.1372 140.5229,129.1352 140.5879,129.1342 C141.8629,129.1052 142.9539,130.1162 143.1799,131.5022 C144.4449,139.1642 150.4959,144.9162 157.6559,144.8532 C164.4999,144.7902 170.2289,139.4372 171.7119,132.2592 C172.1199,130.2622 173.6959,128.8242 175.5499,128.8342 C175.6779,128.8352 175.8069,128.8362 175.9359,128.8362 C177.5099,128.8462 178.8649,129.9262 179.5199,131.5042 C180.3999,133.6192 182.3139,135.0962 184.5509,135.1242 C187.4039,135.1602 189.7979,132.8282 190.1949,129.7682 C190.2519,129.3302 190.5969,129.0082 190.9969,129.0152 L190.9969,129.0152 C191.4079,129.0222 191.7559,129.3722 191.7769,129.8252 C192.0479,135.5542 196.2429,140.1452 201.4629,140.2842 C206.1019,140.4072 210.1139,136.9782 211.3589,132.2102 C211.7609,130.6662 213.0459,129.6052 214.4979,129.6582 C215.6329,129.7002 216.6799,130.4032 217.1619,131.5332 C217.6929,132.7772 218.8139,133.6552 220.1439,133.7102 C221.7979,133.7792 223.2369,132.5512 223.6519,130.8452 C223.7639,130.3832 224.1299,130.0502 224.5619,130.0702 C225.0119,130.0902 225.3729,130.4792 225.4009,130.9752 C225.6189,134.8102 228.3969,137.9072 231.9319,138.0892 C237.9759,138.4052 237.8409,133.4742 238.8589,131.5762 C239.1169,131.0952 239.5589,130.7782 240.0589,130.7072 C241.2959,130.5332 243.7039,130.1702 245.5239,129.7252 C246.1989,129.5592 246.8659,129.9052 247.2389,130.5402 C248.8349,133.2592 251.7129,134.9872 255.0149,134.6282 C258.4779,134.2502 261.4689,131.4082 262.3199,127.6682 C262.7499,125.7682 262.6279,123.9162 262.0809,122.2782 C261.4379,120.3572 261.6149,118.2292 262.6849,116.5212 L262.6849,116.5212 Z" id="Stroke-20" stroke="#E1C29B" stroke-width="2"></path>
                    <path d="M86.4254,119.9631 C85.5104,120.0231 84.6344,119.7001 83.9554,119.0531 C82.8204,117.9701 82.6944,116.1611 83.6764,114.9341 C86.1994,111.7841 88.7414,108.6421 91.3034,105.5081 C91.8984,104.7781 92.7384,104.3461 93.6654,104.2911 C94.5914,104.2361 95.4764,104.5661 96.1544,105.2201 C97.2894,106.3151 97.3894,108.1261 96.3904,109.3421 C93.8264,112.4661 91.2814,115.5981 88.7554,118.7371 C88.1674,119.4681 87.3404,119.9031 86.4254,119.9631" id="Fill-22" fill="#DB386C"></path>
                    <path d="M93.6062,103.2931 C92.3942,103.3651 91.2542,103.9491 90.4832,104.8941 C87.9212,108.0301 85.3802,111.1731 82.8582,114.3251 C81.5602,115.9471 81.7302,118.3371 83.2292,119.7671 C84.1072,120.6041 85.2952,121.0391 86.4912,120.9611 C87.6862,120.8821 88.8072,120.2961 89.5682,119.3501 C92.0942,116.2131 94.6402,113.0821 97.2052,109.9601 C98.5242,108.3541 98.3952,105.9611 96.8962,104.5141 C96.0192,103.6671 94.8182,103.2211 93.6062,103.2931 M93.7242,105.2901 C94.3212,105.2541 94.9322,105.4641 95.4132,105.9281 L95.4132,105.9281 C96.1692,106.6561 96.2402,107.9151 95.5752,108.7251 C93.0112,111.8501 90.4662,114.9841 87.9412,118.1251 C87.5252,118.6431 86.9502,118.9261 86.3602,118.9651 C85.7692,119.0041 85.1632,118.7981 84.6822,118.3391 C83.9272,117.6181 83.8402,116.3601 84.4952,115.5441 C87.0172,112.3961 89.5602,109.2551 92.1222,106.1221 C92.5452,105.6061 93.1272,105.3251 93.7242,105.2901" id="Fill-24" fill="#FFFFF9"></path>
                    <path d="M106.0375,120.1915 C104.2675,120.2805 102.7545,118.9585 102.6635,117.2415 C102.6585,117.1535 102.6535,117.0655 102.6495,116.9775 C102.5585,115.2595 103.9325,113.7855 105.7125,113.6965 C109.4805,113.5075 113.2485,113.3355 117.0185,113.1815 C118.7995,113.1075 120.3015,114.4515 120.3665,116.1705 C120.3695,116.2575 120.3735,116.3465 120.3765,116.4345 C120.4415,118.1535 119.0555,119.6065 117.2855,119.6795 C113.5355,119.8335 109.7865,120.0035 106.0375,120.1915" id="Fill-26" fill="#F79151"></path>
                    <path d="M116.9771,112.1818 C113.2051,112.3368 109.4331,112.5088 105.6621,112.6978 C103.3091,112.8148 101.4951,114.7638 101.6171,117.0318 C101.6221,117.1198 101.6271,117.2078 101.6311,117.2958 C101.7541,119.5638 103.7531,121.3068 106.0881,121.1898 C109.8331,121.0028 113.5791,120.8318 117.3261,120.6778 C119.6611,120.5818 121.4931,118.6648 121.4091,116.3948 C121.4051,116.3068 121.4021,116.2188 121.3991,116.1308 C121.3151,113.8608 119.3311,112.0848 116.9771,112.1818 M117.0591,114.1798 C118.2651,114.1308 119.2891,115.0448 119.3341,116.2098 C119.3381,116.2978 119.3411,116.3858 119.3451,116.4738 C119.3901,117.6388 118.4451,118.6308 117.2441,118.6798 C113.4911,118.8338 109.7391,119.0048 105.9881,119.1928 C104.7871,119.2528 103.7551,118.3518 103.6941,117.1868 C103.6901,117.0988 103.6851,117.0108 103.6811,116.9238 C103.6201,115.7588 104.5571,114.7548 105.7621,114.6948 C109.5271,114.5068 113.2931,114.3348 117.0591,114.1798" id="Fill-28" fill="#FFFFF9"></path>
                    <path d="M135.9595,114.7884 C135.0405,114.8124 134.1755,114.4554 133.5225,113.7814 C130.7155,110.8864 127.8895,108.0004 125.0435,105.1254 C123.9365,104.0054 123.8705,102.1934 124.9015,100.9994 C125.5175,100.2864 126.3705,99.8764 127.2995,99.8454 C128.2295,99.8154 129.1065,100.1694 129.7685,100.8414 C132.6115,103.7274 135.4355,106.6234 138.2405,109.5284 C139.3335,110.6604 139.3735,112.4734 138.3395,113.6564 C137.7235,114.3624 136.8785,114.7644 135.9595,114.7884" id="Fill-30" fill="#4DBDE6"></path>
                    <path d="M127.2677,98.8462 C126.0517,98.8862 124.8947,99.4392 124.0967,100.3632 C122.7327,101.9422 122.8237,104.3362 124.2877,105.8152 C127.1337,108.6892 129.9607,111.5732 132.7677,114.4662 C133.6137,115.3382 134.7857,115.8192 135.9857,115.7882 C137.1857,115.7572 138.3307,115.2152 139.1307,114.3002 C140.4957,112.7392 140.4457,110.3432 139.0017,108.8472 C136.1977,105.9402 133.3737,103.0422 130.5307,100.1542 C129.6747,99.2842 128.4837,98.8062 127.2677,98.8462 L127.2677,98.8462 M127.3327,100.8452 C127.9317,100.8252 128.5377,101.0522 129.0077,101.5282 C131.8507,104.4132 134.6757,107.3072 137.4807,110.2112 C138.2077,110.9642 138.2377,112.2242 137.5497,113.0122 C137.1127,113.5132 136.5267,113.7732 135.9337,113.7892 C135.3407,113.8042 134.7417,113.5752 134.2787,113.0972 C131.4717,110.2002 128.6457,107.3132 125.8007,104.4352 C125.0637,103.6902 125.0187,102.4292 125.7057,101.6352 C126.1437,101.1292 126.7337,100.8652 127.3327,100.8452" id="Fill-32" fill="#FFFFF9"></path>
                    <path d="M149.6265,128.8345 C147.9395,128.8605 146.5425,127.5415 146.5125,125.8905 C146.4345,121.5165 146.3565,117.1435 146.2785,112.7695 C146.2485,111.1185 147.6185,109.7485 149.3325,109.7225 C151.0475,109.6965 152.4585,111.0225 152.4795,112.6745 C152.5355,117.0485 152.5925,121.4225 152.6485,125.7955 C152.6695,127.4475 151.3135,128.8085 149.6265,128.8345" id="Fill-34" fill="#00AD65"></path>
                    <path d="M149.3176,108.7229 C147.0286,108.7579 145.2006,110.5859 145.2436,112.7879 C145.3246,117.1619 145.4066,121.5349 145.4886,125.9089 C145.5306,128.1119 147.3936,129.8689 149.6416,129.8339 C151.8896,129.7999 153.6986,127.9859 153.6726,125.7829 C153.6206,121.4089 153.5676,117.0349 153.5146,112.6609 C153.4896,110.4589 151.6066,108.6879 149.3176,108.7229 L149.3176,108.7229 M149.3486,110.7229 C150.4866,110.7049 151.4296,111.5909 151.4446,112.6879 C151.5046,117.0619 151.5646,121.4359 151.6246,125.8099 C151.6396,126.9069 150.7336,127.8169 149.6116,127.8349 C148.4886,127.8519 147.5556,126.9699 147.5366,125.8719 C147.4626,121.4989 147.3876,117.1249 147.3136,112.7519 C147.2946,111.6539 148.2106,110.7399 149.3486,110.7229" id="Fill-36" fill="#FFFFF9"></path>
                    <path d="M162.598,112.9909 C161.678,112.9959 160.82,112.6199 160.181,111.9319 C159.111,110.7819 159.095,108.9689 160.153,107.8039 C162.87,104.8129 165.606,101.8309 168.361,98.8579 C169.002,98.1659 169.869,97.7859 170.8,97.7869 C171.73,97.7889 172.596,98.1719 173.235,98.8659 C174.304,100.0279 174.294,101.8409 173.22,102.9939 C170.463,105.9569 167.724,108.9289 165.005,111.9089 C164.372,112.6029 163.518,112.9869 162.598,112.9909" id="Fill-38" fill="#FFEB84"></path>
                    <path d="M170.8012,96.7874 C169.5832,96.7854 168.4072,97.2994 167.5772,98.1954 C164.8222,101.1704 162.0862,104.1544 159.3702,107.1464 C157.9722,108.6864 157.9962,111.0824 159.4102,112.6014 C160.2392,113.4904 161.4012,113.9964 162.6032,113.9904 C163.8042,113.9844 164.9622,113.4674 165.7812,112.5704 C168.5012,109.5914 171.2402,106.6214 173.9982,103.6604 C175.4172,102.1374 175.4342,99.7414 174.0212,98.2064 C173.1932,97.3074 172.0192,96.7894 170.8012,96.7874 L170.8012,96.7874 M170.7982,98.7874 C171.3972,98.7884 171.9972,99.0354 172.4502,99.5274 C173.1622,100.2994 173.1562,101.5604 172.4422,102.3284 C169.6842,105.2934 166.9462,108.2664 164.2272,111.2484 C163.7792,111.7404 163.1862,111.9874 162.5932,111.9904 C161.9992,111.9934 161.4052,111.7514 160.9512,111.2644 C160.2402,110.4984 160.2302,109.2374 160.9342,108.4624 C163.6512,105.4734 166.3882,102.4924 169.1432,99.5214 C169.5982,99.0314 170.1982,98.7864 170.7982,98.7874" id="Fill-40" fill="#FFFFF9"></path>
                    <path d="M182.2504,124.203 C180.4864,124.184 179.0624,122.773 179.0764,121.053 C179.0774,120.965 179.0774,120.877 179.0784,120.789 C179.0924,119.069 180.5464,117.681 182.3204,117.7 C186.0754,117.741 189.8304,117.798 193.5844,117.873 C195.3584,117.908 196.7704,119.34 196.7304,121.059 C196.7294,121.147 196.7274,121.235 196.7254,121.323 C196.6854,123.043 195.2194,124.409 193.4554,124.375 C189.7204,124.301 185.9854,124.243 182.2504,124.203" id="Fill-42" fill="#DB386C"></path>
                    <path d="M193.6045,116.8727 C189.8475,116.7987 186.0895,116.7407 182.3315,116.6997 C179.9865,116.6747 178.0655,118.5097 178.0505,120.7807 C178.0495,120.8687 178.0485,120.9567 178.0485,121.0447 C178.0325,123.3167 179.9125,125.1777 182.2395,125.2027 C185.9715,125.2437 189.7045,125.3007 193.4365,125.3747 C195.7625,125.4207 197.6985,123.6177 197.7525,121.3467 C197.7545,121.2587 197.7565,121.1707 197.7585,121.0827 C197.8135,118.8117 195.9495,116.9187 193.6045,116.8727 M193.5645,118.8727 C194.7665,118.8957 195.7285,119.8717 195.7025,121.0367 C195.7005,121.1247 195.6985,121.2127 195.6965,121.3007 C195.6715,122.4667 194.6715,123.3987 193.4755,123.3747 C189.7375,123.3007 185.9995,123.2437 182.2615,123.2037 C181.0645,123.1907 180.0945,122.2277 180.1045,121.0617 C180.1055,120.9737 180.1065,120.8857 180.1065,120.7977 C180.1175,119.6317 181.1085,118.6867 182.3095,118.6997 C186.0615,118.7407 189.8135,118.7977 193.5645,118.8727" id="Fill-44" fill="#FFFFF9"></path>
                    <path d="M208.7415,118.8072 C207.8255,118.7782 206.9845,118.3712 206.3745,117.6602 C203.7475,114.6082 201.1015,111.5642 198.4355,108.5282 C197.3985,107.3472 197.4375,105.5342 198.5325,104.4022 C199.1875,103.7252 200.0595,103.3652 200.9865,103.3892 C201.9135,103.4122 202.7655,103.8162 203.3865,104.5252 C206.0485,107.5712 208.6915,110.6252 211.3155,113.6882 C212.3385,114.8812 212.2735,116.6932 211.1755,117.8142 C210.5215,118.4842 209.6565,118.8362 208.7415,118.8072" id="Fill-46" fill="#9E479B"></path>
                    <path d="M201.012,102.3891 C199.799,102.3581 198.616,102.8441 197.768,103.7201 C196.32,105.2181 196.272,107.6131 197.643,109.1741 C200.309,112.2081 202.956,115.2501 205.583,118.3011 C206.375,119.2201 207.513,119.7681 208.709,119.8071 C209.906,119.8451 211.077,119.3701 211.925,118.5031 C213.374,117.0231 213.463,114.6291 212.113,113.0521 C209.49,109.9871 206.847,106.9311 204.184,103.8831 C203.382,102.9651 202.225,102.4201 201.012,102.3891 M200.961,104.3881 C201.558,104.4041 202.149,104.6641 202.588,105.1671 C205.252,108.2111 207.896,111.2641 210.52,114.3251 C211.201,115.1191 211.157,116.3791 210.427,117.1251 C209.963,117.6011 209.364,117.8271 208.773,117.8081 C208.183,117.7891 207.599,117.5251 207.166,117.0211 C204.54,113.9671 201.894,110.9211 199.229,107.8841 C198.538,107.0971 198.567,105.8361 199.296,105.0831 L199.296,105.0831 C199.761,104.6031 200.364,104.3731 200.961,104.3881" id="Fill-48" fill="#FFFFF9"></path>
                    <path d="M221.9084,116.0629 C220.2034,115.9909 218.8694,114.5929 218.9344,112.9429 C219.1084,108.5719 219.2824,104.2009 219.4574,99.8299 C219.5224,98.1799 220.9844,96.8929 222.7164,96.9659 C224.4484,97.0399 225.7964,98.4449 225.7214,100.0959 C225.5264,104.4649 225.3304,108.8349 225.1344,113.2049 C225.0604,114.8549 223.6124,116.1349 221.9084,116.0629" id="Fill-50" fill="#4DBDE6"></path>
                    <path d="M222.7589,95.9669 C220.4469,95.8689 218.4959,97.5879 218.4119,99.7889 C218.2409,104.1599 218.0699,108.5309 217.8999,112.9019 C217.8149,115.1029 219.5949,116.9659 221.8659,117.0619 C224.1379,117.1579 226.0679,115.4529 226.1699,113.2519 C226.3689,108.8819 226.5689,104.5119 226.7679,100.1429 C226.8699,97.9419 225.0719,96.0649 222.7589,95.9669 L222.7589,95.9669 M222.6739,97.9649 C223.8249,98.0139 224.7249,98.9529 224.6769,100.0489 C224.4849,104.4189 224.2919,108.7889 224.0999,113.1589 C224.0519,114.2559 223.0849,115.1119 221.9509,115.0639 C220.8169,115.0159 219.9249,114.0809 219.9699,112.9839 C220.1479,108.6139 220.3249,104.2429 220.5029,99.8719 C220.5479,98.7759 221.5249,97.9169 222.6739,97.9649" id="Fill-52" fill="#FFFFF9"></path>
                    <path d="M239.0879,123.0488 C238.1739,122.9978 237.3459,122.5698 236.7539,121.8448 C235.7619,120.6328 235.8559,118.8218 236.9789,117.7228 C239.8559,114.9028 242.7529,112.0928 245.6689,109.2928 C246.3469,108.6408 247.2299,108.3138 248.1529,108.3718 C249.0779,108.4298 249.9129,108.8648 250.5049,109.5968 C251.4939,110.8208 251.3739,112.6298 250.2369,113.7158 C247.3199,116.5058 244.4209,119.3058 241.5409,122.1148 C240.8709,122.7688 240.0009,123.0998 239.0879,123.0488" id="Fill-54" fill="#00AD65"></path>
                    <path d="M248.2159,107.3738 C247.0079,107.2978 245.8089,107.7388 244.9309,108.5838 C242.0149,111.3858 239.1189,114.1978 236.2419,117.0188 C234.7609,118.4718 234.6389,120.8648 235.9489,122.4658 C236.7159,123.4048 237.8389,123.9798 239.0309,124.0468 C240.2229,124.1138 241.4029,123.6678 242.2709,122.8218 C245.1509,120.0138 248.0499,117.2158 250.9679,114.4288 C252.4689,112.9948 252.6319,110.6038 251.3239,108.9848 C250.5579,108.0378 249.4249,107.4498 248.2159,107.3738 M248.0909,109.3698 C248.6859,109.4078 249.2649,109.6898 249.6849,110.2088 L249.6849,110.2088 C250.3439,111.0228 250.2619,112.2808 249.5049,113.0048 C246.5879,115.7958 243.6899,118.5968 240.8099,121.4078 C240.3349,121.8718 239.7319,122.0838 239.1429,122.0498 C238.5549,122.0168 237.9789,121.7398 237.5589,121.2248 C236.8989,120.4178 236.9669,119.1578 237.7129,118.4278 C240.5909,115.6088 243.4879,112.8008 246.4039,110.0018 C246.8849,109.5398 247.4959,109.3328 248.0909,109.3698" id="Fill-56" fill="#FFFFF9"></path>
                    <path d="M137.538089,23.786645 C136.232089,23.541645 135.173089,22.115645 135.173089,20.811645 L135.173089,4.22364498 C135.173089,2.91564498 136.232089,2.22364498 137.538089,2.46964498 C147.170089,4.31064498 156.803089,-1.31335502 166.436089,0.52864498 C167.742089,0.77364498 168.800089,2.19864498 168.800089,3.50264498 L168.800089,20.091645 C168.800089,21.398645 167.742089,22.090645 166.436089,21.845645 C156.803089,20.003645 147.170089,25.628645 137.538089,23.786645 Z" id="Fill-58" fill="#FFFFF9"></path>
                    <path d="M137.538089,23.786645 C136.232089,23.541645 135.173089,22.115645 135.173089,20.811645 L135.173089,4.22364498 C135.173089,2.91564498 136.232089,2.22364498 137.538089,2.46964498 C147.170089,4.31064498 156.803089,-1.31335502 166.436089,0.52864498 C167.742089,0.77364498 168.800089,2.19864498 168.800089,3.50264498 L168.800089,20.091645 C168.800089,21.398645 167.742089,22.090645 166.436089,21.845645 C156.803089,20.003645 147.170089,25.628645 137.538089,23.786645 Z" id="Stroke-60" stroke="#E1C29B" stroke-width="2"></path>
                    <path d="M156.940689,11.666245 C156.758689,12.767245 156.568689,13.876245 156.401689,14.998245 C156.352689,15.332245 156.187689,15.442245 155.865689,15.445245 C154.334689,15.540245 154.614689,15.733245 154.402689,14.440245 C154.018689,12.147245 153.645689,9.87024498 153.266689,7.60524498 C153.248689,7.49424498 153.215689,7.38924498 153.247689,7.27524498 L153.247689,11.589245 C153.247689,13.816245 153.236689,16.046245 153.256689,18.268245 C153.259689,18.727245 153.084689,18.894245 152.659689,19.015245 C152.254689,19.131245 152.005689,19.165245 152.007689,18.651245 C152.023689,14.314245 152.020689,9.98124498 152.010689,5.65124498 C152.010689,5.25624498 152.137689,5.05024498 152.545689,4.93124498 C154.053689,4.51324498 153.763689,4.44524498 154.011689,5.80624498 C154.503689,8.53624498 154.961689,11.304245 155.463689,14.289245 C155.586689,13.514245 155.681689,12.909245 155.780689,12.305245 C156.193689,9.77924498 156.611689,7.29224498 157.020689,4.85224498 C157.075689,4.52224498 157.247689,4.40624498 157.592689,4.51224498 C159.149689,5.12524498 158.877689,5.01624498 158.880689,6.33624498 C158.892689,10.447245 158.877689,14.542245 158.894689,18.655245 C158.896689,19.136245 158.701689,19.090245 158.290689,18.893245 C157.879689,18.703245 157.640689,18.589245 157.647689,18.074245 C157.696689,14.553245 157.717689,11.025245 157.747689,7.49824498 L157.747689,7.22124498 C157.726689,7.21224498 157.706689,7.20324498 157.685689,7.19424498 C157.437689,8.66524498 157.188689,10.157245 156.940689,11.666245 Z" id="Fill-62" fill="#000000"></path>
                    <path d="M145.101089,7.22864498 C145.142089,5.81964498 145.806089,5.72364498 147.208089,5.82264498 C147.636089,5.84664498 148.074089,5.85664498 148.500089,5.87464498 C149.753089,5.90164498 150.373089,6.29464498 150.444089,7.54464498 C150.501089,8.53864498 150.471089,9.56064498 150.481089,10.570645 C150.486089,11.025645 150.145089,11.032645 149.877089,11.096645 C149.586089,11.168645 149.250089,11.278645 149.252089,10.809645 C149.256089,10.012645 149.228089,9.22064498 149.256089,8.42064498 C149.315089,6.73764498 148.075089,6.92164498 146.994089,7.00464498 C146.518089,7.04464498 146.338089,7.39464498 146.328089,7.85464498 C146.302089,9.00564498 146.297089,10.164645 146.294089,11.324645 C146.289089,13.252645 146.284089,15.181645 146.296089,17.114645 C146.305089,18.448645 146.825089,19.175645 148.170089,18.985645 C148.853089,18.868645 149.197089,18.442645 149.225089,17.725645 C149.259089,16.843645 149.271089,15.963645 149.243089,15.091645 C149.227089,14.571645 149.501089,14.502645 149.901089,14.410645 C150.287089,14.321645 150.508089,14.322645 150.490089,14.793645 C150.454089,15.746645 150.496089,16.682645 150.449089,17.637645 C150.387089,18.891645 149.824089,19.756645 148.593089,20.038645 C147.948089,20.175645 147.267089,20.112645 146.625089,19.837645 C145.664089,19.420645 145.135089,18.344645 145.107089,17.229645 C145.065089,15.518645 145.096089,13.849645 145.096089,12.163645 C145.090089,10.513645 145.053089,8.84364498 145.101089,7.22864498 Z" id="Fill-64" fill="#000000"></path>
                </g>
            </g>
        </g>
    </g>
</svg>