<?xml version="1.0" standalone="no"?>
<!DOCTYPE svg PUBLIC "-//W3C//DTD SVG 20010904//EN"
 "http://www.w3.org/TR/2001/REC-SVG-20010904/DTD/svg10.dtd">
<svg version="1.0" xmlns="http://www.w3.org/2000/svg"
 width="16.000000pt" height="16.000000pt" viewBox="0 0 16.000000 16.000000"
 preserveAspectRatio="xMidYMid meet">
<metadata>
Created by potrace 1.11, written by Peter Selinger 2001-2013
</metadata>
<g transform="translate(0.000000,16.000000) scale(0.003125,-0.003125)"
fill="#000000" stroke="none">
<path d="M2456 4750 c-73 -19 -191 -90 -326 -196 -215 -170 -308 -226 -453
-274 -184 -60 -356 -238 -478 -494 -67 -140 -97 -253 -113 -421 -9 -92 -19
-152 -31 -175 -10 -18 -59 -77 -109 -129 -159 -167 -195 -266 -203 -548 -6
-196 6 -352 37 -493 26 -122 54 -188 114 -277 67 -99 82 -127 112 -219 105
-323 433 -712 779 -924 171 -105 376 -184 559 -215 112 -19 314 -19 431 0 327
53 649 223 910 482 214 212 360 431 438 661 26 73 53 128 97 193 78 115 95
154 125 286 34 150 48 326 42 516 -8 269 -48 373 -203 537 -51 54 -100 112
-109 131 -11 21 -21 76 -27 153 -25 299 -147 570 -347 766 -94 93 -154 130
-294 180 -107 39 -226 113 -377 234 -231 186 -310 226 -450 232 -47 2 -102 -1
-124 -6z m405 -1019 c179 -38 344 -103 702 -276 117 -56 119 -57 142 -108 42
-92 57 -209 62 -499 l5 -268 -62 0 c-54 0 -65 3 -82 25 -42 54 -253 81 -561
72 -236 -6 -288 -16 -325 -63 l-27 -34 -152 0 -152 0 -16 29 c-26 51 -133 70
-396 71 -289 0 -463 -26 -495 -75 -15 -22 -23 -25 -81 -25 l-66 0 6 243 c5
251 19 365 58 483 11 34 30 71 42 82 28 27 356 186 505 246 131 53 263 90 388
111 124 20 377 13 505 -14z m-1776 -935 c41 -41 64 -164 65 -341 0 -68 5 -120
13 -135 12 -23 19 -25 91 -28 95 -4 106 4 106 69 l0 49 55 0 c60 0 56 5 70
-85 12 -74 126 -152 280 -190 95 -25 305 -25 394 -1 160 43 261 141 261 254 0
22 1 22 143 22 l143 0 13 -61 c31 -151 189 -232 451 -232 191 0 340 46 429
131 32 31 41 48 51 100 l13 62 53 0 54 0 0 -50 c0 -62 13 -70 109 -70 95 0
101 9 101 152 0 199 31 339 82 368 25 13 29 13 54 -6 49 -36 57 -78 62 -329 6
-342 -21 -465 -124 -570 -63 -65 -89 -113 -133 -245 -125 -377 -510 -782 -885
-931 -274 -108 -587 -118 -861 -28 -191 64 -380 179 -540 331 -199 189 -358
423 -423 623 -40 124 -73 184 -140 259 -101 111 -127 234 -119 568 5 226 13
275 52 314 30 30 50 30 80 0z m634 -253 c-27 -51 -30 -66 -27 -125 6 -106 -3
-102 267 -106 214 -3 229 -2 252 17 21 17 24 27 24 88 0 58 -5 76 -33 126
l-32 57 34 0 c87 0 110 -42 105 -183 -4 -79 -6 -88 -34 -117 -61 -64 -147 -90
-300 -90 -180 0 -338 49 -372 115 -27 52 -26 203 1 240 13 18 61 32 113 34
l32 1 -30 -57z m1212 3 c-16 -30 -32 -72 -36 -94 -8 -51 10 -119 36 -132 13
-7 98 -10 244 -8 194 3 227 5 241 20 39 39 33 163 -12 231 l-26 40 63 -6 c48
-4 68 -11 81 -27 30 -38 35 -174 8 -245 -10 -26 -106 -78 -180 -96 -33 -9
-109 -14 -190 -14 -165 0 -232 17 -293 75 l-42 39 0 111 c0 110 0 112 28 136
19 16 40 24 67 24 l39 0 -28 -54z"/>
<path d="M2199 3086 c-2 -2 -83 -9 -179 -15 -184 -13 -363 -35 -417 -52 -35
-11 -67 -55 -78 -107 -8 -37 11 -74 47 -93 30 -16 724 -17 754 -1 48 26 71
141 39 202 -24 47 -62 70 -115 70 -26 0 -49 -2 -51 -4z"/>
<path d="M2806 3069 c-74 -58 -74 -210 -1 -249 34 -18 720 -19 753 -1 36 19
55 56 47 93 -12 55 -35 89 -68 103 -42 17 -227 42 -407 55 -80 5 -179 13 -220
16 -68 6 -78 4 -104 -17z"/>
<path d="M1886 1329 c-31 -36 -32 -54 -7 -95 31 -52 227 -123 436 -159 117
-21 348 -23 474 -5 191 26 418 102 454 152 45 61 9 138 -65 138 -21 0 -65 -11
-98 -25 -144 -61 -363 -105 -516 -105 -151 0 -346 40 -502 101 -98 39 -142 38
-176 -2z"/>
</g>
</svg>
