<svg version="1" xmlns="http://www.w3.org/2000/svg" width="682.667" height="682.667" viewBox="0 0 512.000000 512.000000"><path d="M244.5 37.9c-9.7 2.7-15.9 5.2-30.6 12.7-23.5 12-50.7 31.6-57.4 41.5-1.6 2.4-3.6 4.8-4.3 5.2-10 6.4-23 21.5-31.1 36.1-11.3 20.4-17.3 41.7-21.6 76.8-.6 4.5-.9 4.9-6.5 8.3-8 4.8-16.3 14.1-18.9 20.9-4.4 11.9-5.3 52.1-1.5 73.6 4 23.1 13.5 40 25.9 46 3.4 1.7 4.3 2.8 6.4 8.2 9.1 23.9 26.7 50.7 44.2 67.3 27.7 26.2 59.5 39.3 99.9 41.1 57.6 2.7 106-21.7 138.1-69.5 6.9-10.3 16.4-28.1 20.8-39.3 2-5 3-6.1 7.5-8.7 10.4-5.9 17.4-16.7 22.1-34.2 3.5-13.4 4.7-24.8 4.6-45.4 0-22.7-1.3-34.2-4.8-41.5-3.3-6.8-11.1-14.7-18.6-19-5.2-2.9-5.7-3.5-5.7-6.7 0-6.3-3-24.5-6.1-37.1-7.3-29.7-19.2-51.9-36.6-68-4.8-4.5-9.7-9.1-10.8-10.3-17.4-18.3-29.8-28.1-52.2-40.8-28.8-16.3-47.4-21.4-62.8-17.2zm29.4 100.6c20.1 4.9 58.3 18.3 76.2 26.9 4.6 2.1 9 5.1 10.9 7.3 4.2 4.8 10.2 17.4 13.7 28.8 2.6 8.7 2.7 9.8 2.7 32.5l.1 23.5h-11l-.3-7c-.2-3.8-.8-7.5-1.4-8.2-1.5-1.9-94.1-1.9-95.6 0-.6.7-1.2 4.4-1.4 8.2l-.3 7-11.2.3-11.3.3v-7.4c0-4.3-.5-7.8-1.2-8.5-.9-.9-12.9-1.2-47.9-1.2-41.2 0-46.9.2-48.3 1.6-1.2 1.1-1.6 3.5-1.6 8.5v6.9h-10.8l-.7-18.3c-.8-20.4.2-28.5 5.3-43.7 6-17.7 10.6-24.4 20-29.3 14.9-7.8 52.4-21.4 75.5-27.3 16.5-4.2 24.3-4.3 38.6-.9zM112.2 258.2c.4 16.2.7 19 2.8 24.3 2.8 7.2 8.1 12.8 13.7 14.5 6.9 2.1 7.6 1.3 7.2-8.3l-.4-8.2 5.3-.3 5.2-.3v11.2c0 9.1.3 11.6 1.7 13.1 1.5 1.7 4.3 1.8 47.9 1.8 40.7 0 46.4-.2 47.8-1.6 1.3-1.2 1.6-3.9 1.6-13v-11.5l11.3.3 11.2.3.3 11.4c.1 6.4.8 12.1 1.4 12.8 1.6 1.9 94 1.9 95.6 0 .6-.7 1.3-6.4 1.4-12.8l.3-11.4 5.3-.3 5.2-.3v18.4l4.1-.6c6.5-.9 11.3-4.7 14.8-11.9 3.8-8 5.1-15.8 5.1-32.6V240h3c5 0 10.6 5.9 13.1 13.9 4.4 13.6 1.9 48.7-4.8 69.3-3.3 10.1-7.5 15-16.3 18.9l-6.8 3.1-3.6 8.6c-8.1 19.6-19.7 37-35.1 53-30.1 31.4-64.7 45.3-105 42.1-40-3.2-76.4-26.5-102.7-65.8-7.2-10.8-14.6-24.7-16.8-31.6-1.8-5.6-2.6-6.4-10-9.7-7.9-3.6-9.6-5-12.6-11-7.5-14.7-12.5-53.1-9.3-71.2 2-11.5 8.2-19.6 15-19.6h2.7l.4 18.2zm64.1-1c-4.8 5.1-6.6 9.6-7.1 17.8-.4 6.4-.1 7.9 1.6 10l2 2.5 21.8.3c24.9.4 26.8 0 28.5-5.8 2-6.5-1.9-18.8-7.9-25.3l-2.7-2.8 9.5.3 9.5.3v39h-72l-.3-18.9c-.2-14.5.1-19.1 1-19.8.7-.4 5.3-.8 10.2-.8h9l-3.1 3.2zm120.4.7c-6.8 7.6-9.9 22.1-5.8 27.2 1.9 2.4 2.2 2.4 22.8 2.7 25.1.4 26.8.1 28.9-4 3.2-6.2-.2-20.6-6.4-27.1l-2.7-2.8 9.5.3 9.5.3.3 19.7.2 19.8h-72v-19.3c0-10.7.3-19.7.7-20 .3-.4 4.7-.7 9.6-.7h8.9l-3.5 3.9z"/><path d="M191 204.6c-15.7 1.9-29.5 3.8-30.8 4.4-5.4 2.4-6.4 12.9-1.7 17.6l2.4 2.4h33.6c37.1 0 37.8-.1 41.5-6.3 1.3-2 2-5 2-8 0-8.8-5-13.8-13.7-13.6-2.6.1-17.6 1.6-33.3 3.5zM280.2 203c-6 3.7-7.7 11.2-4.2 18.8 3.2 7.1 4 7.2 42 7.2h33.2l2.9-2.9c4.1-4.1 4.1-10.7.2-15l-2.8-3-31-3.6c-17-1.9-32.3-3.5-34-3.5-1.6 0-4.5.9-6.3 2zM190.4 372.6c-5.4 2.6-7.1 9.9-3.5 14.6 4.1 5.2 27.5 14.8 45.1 18.5 11.6 2.4 36.1 2.4 48.3 0 19.6-3.9 43.3-14.1 46.3-19.9 3-5.8.3-11.5-6.4-13.9-2.9-1-4.1-.7-12.5 3.4-34.1 16.6-67 16.8-101.7.7-5.9-2.8-11.1-5-11.6-5s-2.3.7-4 1.6z"/></svg>