<?xml version="1.0" encoding="UTF-8"?>
<svg width="24px" height="30px" viewBox="0 0 24 30" version="1.1" xmlns="http://www.w3.org/2000/svg" xmlns:xlink="http://www.w3.org/1999/xlink">
    <!-- Generator: Sketch 44.1 (41455) - http://www.bohemiancoding.com/sketch -->
    <title>Download Icon</title>
    <desc>Created with Sketch.</desc>
    <g id="Venmo" stroke="none" stroke-width="1" fill="none" fill-rule="evenodd">
        <g id="Venmo-Case-Study" transform="translate(-437.000000, -4600.000000)" fill="#FFFFFF">
            <g id="Wireframing-Compilation" transform="translate(0.000000, 4494.000000)">
                <g id="Header" transform="translate(150.000000, 100.000000)">
                    <g id="Download" transform="translate(274.000000, 0.000000)">
                        <path d="M35.1806641,14.5693359 C35.7666016,14.5693359 36.25,15.0527344 36.25,15.6386719 L36.25,34.9306641 C36.25,35.5166016 35.7666016,36 35.1806641,36 L14.8193359,36 C14.2333984,36 13.75,35.5166016 13.75,34.9306641 L13.75,15.6386719 C13.75,15.0527344 14.2333984,14.5693359 14.8193359,14.5693359 L21.7919922,14.5693359 C22.0849609,14.5693359 22.3193359,14.8037109 22.3193359,15.1113281 C22.3193359,15.4042969 22.0849609,15.6386719 21.7919922,15.6386719 L14.8193359,15.6386719 L14.8193359,34.9306641 L35.1806641,34.9306641 L35.1806641,15.6386719 L28.2080078,15.6386719 C27.9150391,15.6386719 27.6806641,15.4042969 27.6806641,15.1113281 C27.6806641,14.8037109 27.9150391,14.5693359 28.2080078,14.5693359 L35.1806641,14.5693359 Z M20.7080078,19.9306641 C20.8691406,19.9306641 21.0009766,19.9892578 21.0888672,20.0771484 L24.4580078,23.4609375 L24.4580078,6.52734375 C24.4580078,6.234375 24.7070312,6 25,6 C25.2929688,6 25.5419922,6.234375 25.5419922,6.52734375 L25.5419922,23.4609375 L28.9111328,20.0771484 C28.9990234,19.9892578 29.1308594,19.9306641 29.2919922,19.9306641 C29.5849609,19.9306641 29.8193359,20.1650391 29.8193359,20.4580078 C29.8193359,20.6044922 29.7607422,20.7509766 29.6582031,20.8388672 L25.3808594,25.1308594 C25.2783203,25.21875 25.1464844,25.2773438 25,25.2773438 C24.8535156,25.2773438 24.7216797,25.21875 24.6191406,25.1308594 L20.3417969,20.8388672 C20.2392578,20.7509766 20.1806641,20.6044922 20.1806641,20.4580078 C20.1806641,20.1650391 20.4150391,19.9306641 20.7080078,19.9306641 Z" id="Download-Icon"></path>
                    </g>
                </g>
            </g>
        </g>
    </g>
</svg>
